<?xml version="1.0" encoding="UTF-8"?>
<svg width="100px" height="100px" viewBox="0 0 100 100" version="1.1" xmlns="http://www.w3.org/2000/svg" xmlns:xlink="http://www.w3.org/1999/xlink">
    <!-- Generator: Sketch 41.1 (35376) - http://www.bohemiancoding.com/sketch -->
    <title>category_misc-black</title>
    <desc>Created with Sketch.</desc>
    <defs></defs>
    <g stroke="none" stroke-width="1" fill="none" fill-rule="evenodd">
        <g fill="#2B2C3D">
            <path d="M73.543219,33.3645314 L73.5426017,33.3651487 L71.0159578,35.8522849 L63.9774057,28.9236137 L66.5034323,26.435243 C67.4738414,25.4802666 68.7522874,24.9993833 70.023943,25.0000006 C71.2949813,24.9993833 72.5734273,25.4796493 73.543219,26.435243 C74.5136281,27.389602 75.0013018,28.6476768 75.0000672,29.8983439 C75.0006845,31.1502457 74.5123934,32.4089378 73.543219,33.3645314 L73.543219,33.3645314 Z M72.4555213,27.5068906 L72.454904,27.5062733 C71.7820377,26.8439012 70.9066942,26.5154931 70.023943,26.5148758 C69.1411918,26.5154931 68.2646136,26.8445185 67.59113,27.5068906 L66.1528011,28.9229964 L71.0159578,33.7102242 L72.4542867,32.2947357 C73.127153,31.631129 73.461117,30.7675144 73.4617343,29.8983439 C73.461117,29.0297908 73.1277704,28.1692627 72.4555213,27.5068906 L72.4555213,27.5068906 Z M73.5426017,26.435243 L73.543219,26.435243 L73.5358113,26.4278353 L73.5426017,26.435243 L73.5426017,26.435243 Z M64.3268024,42.4377325 L45.6563053,60.8193291 L37.5177094,62.8218781 L36.27445,63.1280631 L38.6177532,53.8925099 L57.09565,35.6967231 L62.0958493,30.7730701 L69.1374879,37.7017413 L64.3268024,42.4377325 L64.3268024,42.4377325 Z M58.4457038,36.5097185 L40.0066975,54.6666148 L38.3881145,61.0464987 L44.8698542,59.4519907 L63.4409646,41.1679288 L66.9614753,37.7023586 L62.0964666,32.9151308 L58.4457038,36.5097185 L58.4457038,36.5097185 Z M47.1248824,33.1305715 C35.866409,33.1305715 26.7401195,42.1154974 26.7401195,53.200507 C26.7401195,64.2848993 35.866409,73.2704426 47.1248824,73.2704426 C58.3833557,73.2704426 67.5096453,64.2848993 67.5096453,53.200507 C67.5096453,50.9139962 67.1158024,48.7200816 66.4009591,46.6724691 L67.7337283,45.2767345 C70.7307613,52.8677777 69.3066304,61.8206036 63.2730567,68.1399912 C54.9103778,76.9002168 40.865991,77.3273943 31.9681056,69.0931156 C23.0689855,60.8576023 22.6368695,47.03236 30.9995484,38.2727517 C37.0331222,31.9527468 46.0168135,29.996496 53.9010783,32.4749898 L52.5769515,33.8620821 C50.8410798,33.3892238 49.0138465,33.1305715 47.1248824,33.1305715 L47.1248824,33.1305715 Z"></path>
        </g>
    </g>
</svg>