<?xml version="1.0" encoding="UTF-8"?>
<svg width="100px" height="100px" viewBox="0 0 100 100" version="1.1" xmlns="http://www.w3.org/2000/svg" xmlns:xlink="http://www.w3.org/1999/xlink">
    <!-- Generator: Sketch 41.1 (35376) - http://www.bohemiancoding.com/sketch -->
    <title>category_babysitting-black</title>
    <desc>Created with Sketch.</desc>
    <defs></defs>
    <g stroke="none" stroke-width="1" fill="none" fill-rule="evenodd">
        <g fill="#2B2C3D">
            <path d="M82.973772,57.7311803 C82.9056737,57.9570509 82.8025149,58.1539291 82.6326063,58.341368 C82.4390992,58.5524054 82.2341301,58.6960186 81.9718505,58.7991774 C81.7095708,58.9003135 81.3825641,58.957624 80.9598153,58.957624 C80.5188619,58.9569497 80.1932037,58.8969423 79.8034926,58.7769275 C79.41513,58.6569127 78.9647372,58.470148 78.3417389,58.2314668 L77.6944679,57.9833463 L77.6944679,75.3888683 C77.6937936,76.671274 77.2150828,77.8235512 76.42285,78.6548899 C75.6292688,79.4855544 74.5302565,79.9979773 73.2491993,79.9986515 C72.5412467,79.9979773 71.9364528,79.8395307 71.3909921,79.5576981 C70.8462057,79.2758656 70.3607525,78.865253 69.9218218,78.3521559 L69.5590803,77.9273843 L69.1963389,78.3521559 C68.3218488,79.3689108 67.207329,79.9952803 65.7954691,79.9986515 C64.5144119,79.997303 63.430233,79.4869029 62.6487881,78.6575869 C61.8693659,77.8275967 61.4000944,76.6746452 61.4000944,75.3888683 L61.4000944,57.9840205 L60.7514749,58.2328153 C60.1358932,58.4687995 59.6504399,58.6535414 59.2175775,58.775579 C58.7833665,58.8969423 58.403769,58.9596467 57.9641641,58.9596467 C57.5414152,58.9603209 57.1024846,58.9009878 56.7336749,58.7890638 C56.3635168,58.6784884 56.0715706,58.5106024 55.9225635,58.3427165 C55.7034353,58.1006641 55.5652159,57.8343391 55.4755419,57.5322793 C55.3865422,57.2302195 55.3508074,56.8930991 55.3514816,56.5344031 C55.3508074,56.2727978 55.3696861,56.0004045 55.3980042,55.7253144 L55.3980042,55.7232916 L55.4060951,55.5628224 C55.4047467,55.3045882 55.3541786,55.0800661 55.3143984,54.8784681 C55.2725955,54.6775444 55.2409062,54.4995449 55.2415804,54.3471665 L55.2415804,46.6190203 C55.2442774,43.3543472 56.1160705,41.297239 57.4200519,40.0074166 C58.0578836,39.3783501 58.8946162,38.9515558 59.9005832,38.6656778 C60.9052018,38.3797998 62.0723123,38.2402319 63.3304453,38.1768533 L64.4611469,38.1202171 L63.6311567,37.3502343 C61.9603884,35.7981324 60.9119442,33.6021306 60.9119442,31.1620537 C60.9112699,27.8474868 62.8409466,24.9772444 65.6417422,23.5829147 L66.2148468,23.2983852 L65.7786131,22.829788 C65.0794255,22.0786839 64.6472373,21.0909213 64.6465631,20 L66.1528166,20 C66.1534909,21.4502916 67.3098136,22.6248188 68.7513401,22.6767353 L68.8551731,22.6996595 L68.9185517,22.7131443 L68.9832788,22.7097731 L69.4060277,22.6861747 C71.7577791,22.6868489 73.8769174,23.636854 75.414186,25.1727742 C76.9501062,26.7093686 77.89674,28.8251357 77.8974143,31.162728 C77.8974143,33.5953882 76.7896369,35.7934127 75.1141489,37.3502343 L74.284833,38.1202171 L75.4148603,38.1768533 C76.6743418,38.2402319 77.7416647,38.3797998 78.6458214,38.6623066 C79.5513266,38.9461619 80.2929913,39.3641911 80.9476789,40.0094394 L80.9483532,40.0094394 C81.5807909,40.6344604 81.9947746,41.440178 82.259077,42.5270539 C82.5227051,43.6112328 82.6238411,44.9664565 82.6231669,46.6190203 L82.6231669,54.3471665 C82.6251896,54.6869838 82.727,54.9667936 82.8099316,55.1980582 C82.8969086,55.4286485 82.9643327,55.6181101 82.9724236,55.7246401 L82.9724236,55.7253144 C83.0169234,56.164245 83.06884,56.5876681 83.0681657,56.9699626 C83.0681657,57.2504467 83.0411961,57.5059839 82.973772,57.7311803 L82.973772,57.7311803 Z M70.303442,75.3868456 C70.303442,76.222904 70.5913428,76.9996292 71.1098338,77.5720595 C71.6263021,78.1458382 72.3821259,78.5052085 73.2444797,78.5025115 C74.1061592,78.5052085 74.8626572,78.1465125 75.3791255,77.5727337 C75.8982908,77.0003034 76.1861916,76.2235782 76.1861916,75.3868456 L76.1861916,59.5597209 L75.3663149,60.4058929 C74.7621953,61.0288912 74.1823484,61.5541247 73.4716987,61.9552978 C72.7610491,62.3557968 71.9115059,62.6416748 70.7329333,62.7616896 L70.303442,62.804841 L70.303442,75.3868456 L70.303442,75.3868456 Z M62.9110677,75.3868456 C62.9103934,76.2235782 63.1989684,76.9996292 63.7181337,77.5720595 C64.234602,78.1458382 64.9911,78.5052085 65.8527796,78.5025115 C66.7137848,78.5052085 67.4702828,78.1458382 67.9867512,77.5727337 C68.5052422,77.0003034 68.7938172,76.2235782 68.7938172,75.3868456 L68.7938172,62.8041668 L68.3643259,62.7610154 C67.1857533,62.6403263 66.3362101,62.3537741 65.6248862,61.9532751 C64.9142366,61.5521019 64.3350639,61.0275427 63.7309443,60.4045444 L62.9110677,59.5597209 L62.9110677,75.3868456 L62.9110677,75.3868456 Z M62.5496747,55.645754 C62.7276742,56.9241142 63.1544685,58.3481104 64.2143748,59.4666757 C65.2749553,60.5886121 66.952466,61.3403904 69.437717,61.3356707 C71.9094832,61.3403904 73.5829485,60.5879378 74.6428547,59.4673499 C75.702761,58.3487847 76.134275,56.9254627 76.3176685,55.6471025 L76.3952061,55.102316 L62.4741597,55.102316 L62.5496747,55.645754 L62.5496747,55.645754 Z M74.4014766,35.7219432 C75.6677005,34.5029161 76.4552136,32.7923676 76.4545393,30.8734787 C76.4552136,28.949196 75.6629808,27.237299 74.3893403,26.0196204 C73.1170482,24.7999191 71.362674,24.0663453 69.4383913,24.0663453 C67.5107373,24.0663453 65.7556889,24.8161009 64.4840711,26.0506355 C63.211779,27.2831474 62.4208947,29.0071807 62.421569,30.9314634 C62.4202205,32.8510265 63.209082,34.5487645 64.4773287,35.7529582 C65.7449011,36.9585005 67.4911843,37.6779152 69.406702,37.6779152 L69.4721033,37.6779152 C71.3889694,37.6779152 73.1352527,36.9423187 74.4014766,35.7219432 L74.4014766,35.7219432 Z M81.7257526,56.5802515 C81.6718134,56.4231534 81.6070863,56.2815629 81.5565182,56.1541314 C81.5052759,56.0287227 81.4735866,55.9174729 81.4708897,55.8736473 L81.4708897,55.8729731 C81.4365034,55.5473148 81.3326703,55.2702019 81.2531099,55.0160132 C81.1708526,54.7618245 81.1128679,54.5359539 81.1142164,54.3471665 L81.1142164,46.6190203 C81.1135421,45.2840239 81.0724134,44.1863601 80.9045275,43.2741125 C80.7379901,42.3659104 80.4366045,41.6181775 79.8817045,41.0693456 C79.1960018,40.3944308 78.2722921,40.0397802 77.1672117,39.8476216 C76.0574116,39.655463 74.7426423,39.619054 73.1918889,39.6183798 C72.6511479,39.6183798 72.0820888,39.6230995 71.4847116,39.6278192 L71.4833631,39.6278192 C70.8475542,39.6332131 70.1611772,39.6345616 69.4808684,39.6345616 L69.4680578,39.6345616 L69.4046792,39.6379328 L69.3406264,39.6352358 L69.3298385,39.6345616 L69.3197249,39.6345616 C68.6387419,39.6345616 67.8977514,39.6332131 67.260594,39.6278192 L67.2612682,39.6278192 C66.6483835,39.6224252 66.0564002,39.6177056 65.4886896,39.6177056 C63.909618,39.6177056 62.5159626,39.6561373 61.3380643,39.8482959 C60.1642113,40.0411287 59.1831912,40.3856656 58.4860264,41.0693456 L58.4853521,41.0693456 L58.4860264,41.0693456 C57.4409534,42.1036308 56.7512052,43.8937397 56.750531,46.6190203 L56.750531,54.3471665 C56.7512052,54.668105 56.8152581,54.9499376 56.8678488,55.1926643 C56.9224623,55.4360651 56.9642652,55.6410343 56.9629168,55.7900415 L56.9588713,55.8722988 L56.9528032,55.9882682 C56.9561744,56.2647069 57.0350605,56.4885548 57.0964164,56.6746452 L57.176651,56.9106294 L57.1975525,56.9847959 L57.2009237,57.0036746 L57.201598,57.0056973 L57.2285676,57.3927115 L57.6115363,57.4459765 L57.8205509,57.4594613 L58.0261942,57.4628325 C58.8871995,57.4608098 59.7131443,57.1209925 60.3401881,56.5701379 C60.9645349,56.0206318 61.4014429,55.2364899 61.4021171,54.3471665 L61.4021171,46.6190203 C61.4027914,46.2077335 61.7365405,45.8712875 62.1559181,45.8712875 C62.5759701,45.8712875 62.9103934,46.2077335 62.9110677,46.6190203 L62.9110677,53.6068503 L76.1861916,53.6068503 L76.1861916,46.6190203 C76.1868658,46.2077335 76.5212891,45.8712875 76.9399926,45.8712875 C77.3607187,45.8712875 77.6944679,46.2077335 77.6951421,46.6190203 L77.6951421,54.3471665 C77.6951421,55.2230051 78.0942926,56.0064727 78.692344,56.5613728 C79.2917439,57.1176213 80.09881,57.4621582 80.9604895,57.4628325 L81.1708526,57.4594613 L81.2794053,57.4547416 L81.3859353,57.4459765 L81.7702525,57.391363 L81.7951994,57.0036746 L81.7965479,56.9531066 C81.7945252,56.7993797 81.7601389,56.6867815 81.7257526,56.5802515 L81.7257526,56.5802515 Z M71.4752722,39.6284934 L71.4833631,39.6278192 L71.4847116,39.6278192 L71.4752722,39.6284934 L71.4752722,39.6284934 Z M51.8764454,73.5036915 L51.8016047,73.6432593 L50.9581297,74.9027408 L50.9588039,74.9013923 L50.8657587,75.0146647 L50.8644102,75.0160132 L47.2133972,78.6474733 C46.3341874,79.5192664 45.1744935,79.9993258 43.9311937,80 L43.929171,80 C42.6865455,79.9993258 41.5275259,79.5199407 40.6489903,78.6474733 C39.7731517,77.7716347 39.2930924,76.6200317 39.2917439,75.3868456 C39.2937666,74.1516367 39.7731517,73.000708 40.6516873,72.1255436 L40.6570812,72.1201497 L40.6894448,72.0857634 L41.0076863,71.7472946 L37.9628156,68.7206284 L37.6924451,68.7995145 C36.8617807,69.0422412 35.9360483,69.1912484 34.8660284,69.1919226 C33.6341907,69.1912484 32.5850723,69.0051579 31.6748475,68.694333 L31.3943633,68.5985908 L28.2173415,71.7574082 L28.5868253,72.1255436 C29.490982,73.0263291 29.9400263,74.2035532 29.9407005,75.3854971 C29.9400263,76.5681152 29.4896336,77.7460136 28.5854769,78.6454506 C27.6806459,79.5462361 26.4933082,79.9939318 25.3025992,79.9939318 L25.2951826,79.9939318 C24.1091933,79.9939318 22.9265752,79.5455618 22.0230927,78.6488218 L17.4955669,73.7255166 C17.4281428,73.6520244 17.3748778,73.5704413 17.3458854,73.5009945 C17.1132724,72.9292384 17,72.3325355 17,71.7425749 C17,70.5471463 17.4638776,69.3793615 18.3491555,68.4974547 L18.3498298,68.4967805 L21.9880322,64.8504871 L21.3104204,64.625965 C21.1357921,64.4108822 21.0110575,64.1809662 20.9335199,63.9193608 C20.8472171,63.6253919 20.8128308,63.2963625 20.8128308,62.9444089 C20.8128308,62.6706672 20.8337323,62.3834406 20.8627246,62.0928429 L20.8633988,62.0914945 L20.8627246,62.0921687 L20.872164,61.9040556 C20.8647473,61.4260189 20.7386643,61.0383306 20.7447325,60.7160436 L20.7447325,52.9899201 C20.7474295,49.7212015 21.586859,47.6620706 22.8854465,46.3769679 C23.5259751,45.7472272 24.3532684,45.3211071 25.3491218,45.0352291 C26.3436267,44.749351 27.5006237,44.609109 28.7594309,44.5457304 L29.8901325,44.4884199 L29.059468,43.7184371 C27.3880255,42.1676836 26.3402555,39.9723561 26.3402555,37.5329535 C26.3395813,34.1516367 28.3440987,31.235546 31.2332198,29.8756026 L31.8110441,29.6038836 L31.3869467,29.125847 C30.7255166,28.3801369 30.3169268,27.4254121 30.3169268,26.3682028 C30.3169268,25.4047129 30.7093349,24.533594 31.3471665,23.8991336 C31.9856724,23.2646732 32.8628595,22.8736136 33.8351145,22.8729394 C34.6543168,22.8736136 35.3932846,23.2033173 35.9313286,23.7379901 C36.4686984,24.2733372 36.7990763,25.0062367 36.7997505,25.8180225 C36.7990763,26.2306577 36.4653272,26.5650811 36.044601,26.5657553 C35.6245491,26.5657553 35.2894515,26.2293092 35.2887773,25.8180225 C35.288103,25.0150019 34.6340896,24.3690793 33.8330917,24.3690793 C32.7286856,24.3697536 31.8231804,25.259077 31.8218319,26.3682028 C31.8225062,27.8191687 32.9795031,28.9923474 34.4203553,29.0456124 L34.4648552,29.0564002 L34.5309308,29.072582 L34.5997033,29.069885 L34.8363618,29.0550517 C37.1887874,29.055726 39.3106227,30.005731 40.8492398,31.5416512 C42.3865084,33.0782456 43.335165,35.194687 43.335165,37.5329535 C43.3358393,39.9676364 42.2361528,42.1656609 40.5586421,43.7204598 L39.7273034,44.4904426 L40.8586792,44.5477531 C42.1168122,44.6111317 43.1902033,44.7506995 44.1011024,45.0332064 C45.0126757,45.3170617 45.7617571,45.7350909 46.4150962,46.3783164 C47.0482082,47.004686 47.4723056,47.8131005 47.7446988,48.8993022 C48.017092,49.9834811 48.1269932,51.3380305 48.126319,52.9899201 L48.126319,60.7160436 C48.1276675,61.0437245 48.2153187,61.3201632 48.2894852,61.5507535 C48.3663486,61.7806695 48.4283788,61.9714796 48.4378182,62.090146 L48.4384924,62.0914945 C48.4978256,62.667296 48.6057041,63.2080369 48.6043556,63.6584297 C48.6003102,64.0987088 48.521424,64.4149277 48.2577959,64.7095708 L48.2571217,64.7095708 C48.2052051,64.7675555 48.126319,64.8309342 48.0251829,64.9064491 L47.5822068,65.2381755 L47.9746148,65.6278866 L50.8630617,68.4988032 C51.7523851,69.3854297 52.2223308,70.5592826 52.2230051,71.756734 C52.2223308,72.3439976 52.1097327,72.9359809 51.8764454,73.5036915 L51.8764454,73.5036915 Z M34.8640057,67.4611469 C37.3377946,67.4665408 39.0112598,66.7140883 40.0718403,65.5928261 C41.1324209,64.4749351 41.5639349,63.0516131 41.7466541,61.7739271 L41.824866,61.2291407 L27.9038196,61.2291407 L27.9793345,61.7725786 C28.1573341,63.0502646 28.5834541,64.4735866 29.6440347,65.5928261 C30.7032667,66.7147625 32.3801032,67.4665408 34.8640057,67.4611469 L34.8640057,67.4611469 Z M19.4427738,69.5526413 C18.8440481,70.1479958 18.5251323,70.944274 18.5251323,71.7560597 C18.5251323,72.0783468 18.5757004,72.404005 18.6781849,72.7202238 L18.7098743,72.8193372 L23.1214307,77.6226275 L23.1295216,77.6300442 C23.7194822,78.215285 24.5049725,78.506557 25.2891144,78.5058827 C26.089438,78.506557 26.9005495,78.2031487 27.5168054,77.5909382 C28.126319,76.9847959 28.4337727,76.183798 28.4330985,75.3868456 C28.4337727,74.5898931 28.1269932,73.7875468 27.5161312,73.1807302 L26.61602,72.2853386 L26.6153457,72.2846644 C26.4744294,72.1450966 26.3962175,71.9569834 26.3955433,71.7574082 C26.3962175,71.5585072 26.4737552,71.3717426 26.61602,71.2294778 L29.9750868,67.8879412 L29.5422243,67.5555406 C28.3710683,66.6561036 27.5835553,65.4856218 27.0832687,64.2800796 L26.8236861,63.6550585 L26.322051,64.1094967 C25.6532043,64.7142905 24.814449,65.1201834 23.8765803,65.2584027 L23.6635202,65.2894178 L23.5421569,65.4761824 L19.4427738,69.5526413 L19.4427738,69.5526413 Z M39.8405758,42.8783333 C41.1007316,41.5669352 41.8821764,39.7781748 41.8828507,37.859286 C41.8821764,35.934329 41.0966861,34.1442201 39.8304622,32.832822 C38.5655868,31.521424 36.8071672,30.6813202 34.8640057,30.6813202 C30.9824023,30.6873883 27.8532515,33.9446448 27.8498803,37.7932104 C27.8512288,39.7120992 28.630651,41.5143445 29.888784,42.8419243 C31.1462428,44.1695041 32.8972457,45.0298351 34.837036,45.0311836 L34.892998,45.0311836 C36.8294171,45.0311836 38.5810943,44.1897313 39.8405758,42.8783333 L39.8405758,42.8783333 Z M47.0293295,62.7225837 C46.9882008,62.5398645 46.9490948,62.3618649 46.9376327,62.2418501 L46.9376327,62.2398274 C46.9039207,61.9263055 46.8128982,61.6525638 46.742103,61.3983751 C46.669285,61.1448606 46.6166942,60.9156188 46.6173684,60.7160436 L46.6173684,52.9899201 C46.6173684,51.6522267 46.5661262,50.5525402 46.3888009,49.6389441 C46.2114756,48.7293935 45.8993022,47.9850319 45.3457506,47.4382227 C44.6566767,46.7599366 43.7235276,46.4066345 42.6063109,46.2144759 C41.4850487,46.0229916 40.1561204,45.9872569 38.5945791,45.9865826 C38.0599063,45.9865826 37.4975896,45.9913023 36.9083033,45.996022 C36.279911,46.0007417 35.6002764,46.0034386 34.9273843,46.0034386 L34.9172707,46.0034386 L34.8363618,46.0068098 L34.752756,46.0034386 L34.7345515,46.0034386 C34.0650305,46.0034386 33.3395476,46.0007417 32.7084583,45.996022 L32.7091326,45.996022 C32.1083842,45.9906281 31.5285372,45.9859084 30.9722887,45.9859084 C29.3878232,45.9865826 27.9914709,46.0236658 26.8108755,46.2151502 C25.6349998,46.407983 24.6512827,46.7518457 23.951421,47.4368742 L23.9500725,47.4375485 C22.903651,48.478576 22.2557058,50.2693591 22.2543573,52.9899201 L22.2543573,60.7160436 C22.2550315,61.02552 22.309645,61.3006102 22.3554934,61.5406399 C22.4026902,61.7799953 22.4404477,61.9849644 22.4390992,62.1413883 L22.4343795,62.2384789 L22.4343795,62.2411759 L22.4283114,62.3618649 C22.4303341,62.625493 22.4977581,62.8452955 22.5523716,63.0300374 C22.6096821,63.2080369 22.6528335,63.3685062 22.6481138,63.3739001 L22.6750834,63.76024 L23.0587264,63.813505 L23.1666049,63.8229444 L23.4915888,63.8303611 C24.3525941,63.8283383 25.1846071,63.4905438 25.8210902,62.9410377 C26.4548764,62.3935543 26.9039207,61.6100866 26.9052692,60.7160436 L26.9052692,52.9899201 C26.9059434,52.5766106 27.2396925,52.2421872 27.6590702,52.241513 C28.0797964,52.2421872 28.4135455,52.5772848 28.4142197,52.9899201 L28.4142197,59.7330007 L41.6893436,59.7330007 L41.6893436,52.9899201 C41.6900179,52.5766106 42.023767,52.2421872 42.4431447,52.241513 C42.8645451,52.2421872 43.1976199,52.5772848 43.1982942,52.9899201 L43.1982942,60.7160436 C43.2036881,62.4474935 44.6485858,63.8283383 46.3699221,63.8303611 C46.48724,63.8296868 46.5971412,63.8269899 46.7043455,63.813505 L47.0906854,63.7595658 L47.1142838,63.3698547 L47.1163065,63.3044534 C47.1142838,63.0920676 47.0691097,62.9093483 47.0293295,62.7225837 L47.0293295,62.7225837 Z M49.7910191,69.5546641 L45.6875906,65.474834 L45.601962,65.3474025 L45.5015002,65.1983953 L45.3288946,65.1525469 C44.6013889,64.9583656 43.9480498,64.5983211 43.407983,64.1101709 L42.906348,63.6557327 L42.6467653,64.281428 C42.1087213,65.5800155 41.2436706,66.839497 39.9228332,67.7591612 L39.4528874,68.086168 L42.6170987,71.2315005 L42.617773,71.2321748 C42.7661059,71.3791592 42.8369012,71.5665981 42.8375754,71.7580825 C42.8369012,71.950241 42.7661059,72.1376799 42.617773,72.2860129 L41.7203587,73.1807302 C41.1290497,73.7673196 40.799346,74.5561811 40.8000202,75.3868456 C40.799346,76.2161615 41.1277012,77.0056973 41.718336,77.5909382 L41.7210329,77.5936352 L41.718336,77.5909382 C42.3055996,78.1755048 43.0958096,78.50386 43.9284968,78.5025115 C44.7605097,78.50386 45.5527425,78.1768533 46.1400061,77.590264 L49.7384283,74.0140916 L50.5016687,72.871928 L50.5212217,72.8179887 C50.6466305,72.4721033 50.7086606,72.112733 50.7086606,71.756734 C50.7086606,70.9462967 50.3890706,70.1500185 49.7910191,69.5546641 L49.7910191,69.5546641 Z M17.4955669,73.7255166 L17.4962411,73.7261909 L17.4955669,73.7255166 L17.4955669,73.7255166 Z M50.8630617,68.4988032 L50.8623875,68.498129 L50.8630617,68.4988032 L50.8630617,68.4988032 Z"></path>
        </g>
    </g>
</svg>