<?xml version="1.0" encoding="UTF-8"?>
<svg width="100px" height="100px" viewBox="0 0 100 100" version="1.1" xmlns="http://www.w3.org/2000/svg" xmlns:xlink="http://www.w3.org/1999/xlink">
    <!-- Generator: Sketch 41.1 (35376) - http://www.bohemiancoding.com/sketch -->
    <title>category_dog-walking-black</title>
    <desc>Created with Sketch.</desc>
    <defs></defs>
    <g stroke="none" stroke-width="1" fill="none" fill-rule="evenodd">
        <g fill="#2B2C3D">
            <path d="M84.4795143,67.5895808 C84.0115602,68.1327187 83.2791667,68.4075283 82.3050186,68.4075283 C82.1436327,68.4075283 81.9841913,68.4003988 81.8312313,68.3893805 L81.8189167,68.387436 L79.3877591,68.2027173 C79.1602634,68.1852177 78.9612857,68.0452203 78.8698986,67.8417057 C78.7791596,67.6355985 78.8128626,67.3990289 78.9554525,67.2253285 L80.5077379,65.3463827 C80.8123617,64.9367608 81.3853138,64.3813084 82.0263201,64.1233503 C83.098985,63.6942844 84.2785922,64.1797381 84.7750643,65.2199962 C85.1587607,66.0230365 85.045985,66.9317229 84.4795143,67.5895808 L84.4795143,67.5895808 Z M83.6570299,65.7287828 C83.4891627,65.3761969 83.0400046,65.0158334 82.4949224,65.2349033 C82.1727988,65.3651786 81.75864,65.710635 81.4851267,66.0761836 L80.6477352,67.0918125 C81.4423497,67.1527373 81.7741953,67.1793108 81.9245628,67.1955142 L81.9245628,67.1903291 L81.9252109,67.1903291 C82.0477086,67.2006993 82.1760395,67.2045881 82.3043704,67.2045881 C82.8974147,67.2045881 83.3122217,67.0743128 83.5345322,66.8157066 C83.9169324,66.3697892 83.7250842,65.8707246 83.6570299,65.7287828 L83.6570299,65.7287828 Z M75.8294933,41.6233145 L64.8837752,41.6233145 C64.8487759,44.5606662 64.3574889,46.9872868 63.5952812,49.0023411 L64.4197099,49.0023411 C64.5830402,48.9848414 70.0105297,48.5564236 74.1650805,51.9604331 C76.7654015,54.0908556 78.2619472,57.2284812 78.6151812,61.2851635 L78.6177737,65.8097998 C78.6177737,66.2006257 78.294354,66.5175641 77.8925097,66.5175641 C77.4919618,66.5175641 77.1678939,66.2006257 77.1678939,65.8097998 L77.1678939,61.344792 C76.8528998,57.7424529 75.531999,54.9314878 73.2447276,53.0518938 C69.5607235,50.0250995 64.5331337,50.4120366 64.4851717,50.4146291 L62.988626,50.4178698 L62.8324253,50.7257343 L63.7573151,50.7257343 L63.842869,50.7309194 C63.942682,50.743234 73.7593475,52.0336724 73.7593475,65.0067595 L73.7593475,73.9011277 C73.7593475,74.2926017 73.4352795,74.6082439 73.0340834,74.6082439 C72.6328874,74.6082439 72.3081713,74.2926017 72.3081713,73.9011277 L72.3081713,65.0067595 C72.3081713,53.6092907 64.4184137,52.2410759 63.7087049,52.141263 L62.0073483,52.141263 C59.1983276,56.4085894 55.1241457,57.8915242 53.5135281,58.3270715 L53.5135281,67.6880975 C53.5135281,69.4445456 52.0487411,70.873037 50.2482197,70.873037 C48.4470502,70.873037 46.9822632,69.4445456 46.9822632,67.6880975 L46.9822632,58.4994756 L44.347591,58.4994756 L44.347591,71.2256229 C44.347591,72.9814229 42.882804,74.4105624 41.0822826,74.4105624 C39.2817612,74.4105624 37.8169742,72.9814229 37.8169742,71.2256229 L37.8169742,58.4994756 L30.6537769,58.4994756 L30.6537769,71.2269192 C30.6537769,72.9827192 29.1889899,74.4112106 27.3891167,74.4112106 C25.5885953,74.4112106 24.1231601,72.9827192 24.1231601,71.2269192 L24.1231601,50.4632393 L24.0894571,50.4282399 C23.0090146,49.2149296 22.2215296,47.8246783 21.6485775,46.3955387 L21.6485775,47.9912492 C21.6485775,49.779456 20.1572169,51.2345209 18.3242887,51.2345209 C16.4920087,51.2345209 15,49.779456 15,47.9912492 L15,38.5336509 C15,36.744796 16.4920087,35.2903792 18.3242887,35.2890829 C19.0547378,35.2890829 19.7249103,35.528245 20.2745295,35.919071 L20.2784183,35.8840716 C20.3186027,35.5256525 20.6284117,35.2534354 20.9991454,35.2534354 L46.0884839,35.2534354 C46.1662602,35.2534354 46.2375551,35.2722314 46.3075538,35.2936199 C46.3814413,35.2689907 46.4585694,35.2534354 46.5363457,35.2534354 L57.349196,35.2534354 C57.7244667,34.7064088 59.6578559,31.60119 57.086701,29.0935524 C56.9868881,28.9807767 56.4314357,28.3099561 56.5267116,27.4920087 C56.5655998,27.164052 56.7256893,26.6896165 57.2759567,26.2851798 C57.363455,26.224255 57.7244667,26 58.2734377,26 C58.7737986,26 59.5301731,26.1944408 60.2865477,27.1173862 C60.3014548,27.1329415 63.6335212,30.8467598 61.6080967,35.2534354 L75.8294933,35.2534354 C77.6300147,35.2534354 79.096098,36.682575 79.096098,38.4377268 C79.096098,40.1948231 77.6300147,41.6233145 75.8294933,41.6233145 L75.8294933,41.6233145 Z M20.1986976,38.9944755 L20.1831423,38.3845797 C20.1040698,37.4473753 19.3049183,36.7052597 18.3242887,36.7052597 C17.2911602,36.7052597 16.4498799,37.5245034 16.4498799,38.5336509 L16.4498799,47.9912492 C16.4498799,48.9997485 17.2911602,49.8196404 18.3242887,49.8196404 C19.3574173,49.8196404 20.1986976,48.9997485 20.1986976,47.9912492 L20.1986976,38.9944755 L20.1986976,38.9944755 Z M48.4327912,67.6887456 C48.4327912,68.6648382 49.2468498,69.4588046 50.2482197,69.4588046 C51.2482933,69.4588046 52.062352,68.6648382 52.062352,67.6887456 L52.062352,58.4994756 L48.4327912,58.4994756 L48.4327912,67.6887456 L48.4327912,67.6887456 Z M45.4422924,37.4532085 C45.4351629,37.1524735 45.4254409,36.8809045 45.4144226,36.6696123 L21.6738548,36.6696123 C21.5720975,38.5731872 21.5383944,44.3701142 24.3979697,48.486425 C24.6416688,48.8370665 24.8989787,49.1818747 25.1867511,49.5046464 C25.3092487,49.6420512 25.444061,49.7619563 25.57304,49.8928797 C27.4850408,51.8107137 30.0704546,52.8451385 33.287801,52.9462477 L33.4102986,52.9598586 L33.5431665,52.9553216 L33.6786269,52.9598586 L33.8011246,52.9462477 C37.2368927,52.8393053 39.962952,51.6791421 41.9041189,49.5001094 C45.1953527,45.805087 45.4960877,40.0839919 45.4422924,37.4532085 L45.4422924,37.4532085 Z M50.6584897,38.5336509 C50.6584897,37.5245034 49.8185057,36.7052597 48.784729,36.7052597 C47.7516005,36.7052597 46.9109683,37.5245034 46.9109683,38.5336509 L46.9109683,47.9912492 C46.9109683,48.9997485 47.7516005,49.8196404 48.784729,49.8196404 C49.8185057,49.8196404 50.6584897,48.9997485 50.6584897,47.9912492 L50.6584897,38.5336509 L50.6584897,38.5336509 Z M59.3454544,27.8957973 C58.9656468,27.4336765 58.6026907,27.2035883 58.2714933,27.2035883 C58.0964967,27.2035883 57.9856654,27.2677537 57.9811285,27.2696981 C57.7990023,27.4058066 57.7607623,27.541267 57.7510403,27.6287654 C57.7192816,27.8977418 57.9383515,28.2166246 57.9934431,28.2820863 C60.3604352,30.5881536 59.7187807,33.5047649 58.7815762,35.2540836 L60.230808,35.2540836 C62.430581,31.3328617 59.3778612,27.9307967 59.3454544,27.8957973 L59.3454544,27.8957973 Z M75.8314377,36.6696123 L51.4971775,36.6696123 C51.8808739,37.1971948 52.1096659,37.8388493 52.1096659,38.5336509 L52.1096659,47.9912492 C52.1096659,49.779456 50.6183053,51.2345209 48.7860253,51.2345209 C46.952449,51.2345209 45.4604402,49.779456 45.4604402,47.9912492 L45.4604402,46.3274845 C44.8855438,47.780605 44.0974106,49.1954856 42.9994684,50.4282399 C40.8107137,52.8853229 37.782623,54.2068719 33.9962134,54.355295 C33.9352887,54.3721466 33.8730676,54.3818686 33.8101985,54.3818686 L33.6326092,54.3747391 L33.5438146,54.3708503 L33.4556681,54.3747391 C33.3325223,54.3818686 33.2003026,54.38835 33.0810456,54.3546469 C30.0886024,54.236038 27.5783723,53.3707767 25.5736882,51.8035842 L25.5736882,71.2256229 C25.5736882,72.2023636 26.3883949,72.9950338 27.3891167,72.9950338 C28.3904865,72.9950338 29.203897,72.2023636 29.203897,71.2256229 L29.203897,57.7923594 C29.203897,57.4008854 29.5279649,57.0852432 29.9285129,57.0852432 L38.540942,57.0852432 C38.9421381,57.0852432 39.2668541,57.4008854 39.2668541,57.7923594 L39.2668541,71.2269192 C39.2668541,72.2023636 40.0802646,72.99633 41.0816345,72.99633 C42.0817081,72.99633 42.8964148,72.2023636 42.8964148,71.2269192 L42.8964148,57.7923594 C42.8964148,57.4015335 43.2204828,57.0852432 43.6216789,57.0852432 L52.6281745,57.0852432 L52.6411373,57.0807062 C53.7462089,56.8577475 63.4364879,54.527051 63.4364879,41.2759137 L63.4364879,40.9168464 C63.4364879,40.5260205 63.7605558,40.2090821 64.1624,40.2090821 L75.8314377,40.2090821 C76.8321595,40.2090821 77.6468662,39.4144676 77.6468662,38.4390231 C77.6468662,37.4629305 76.8321595,36.6696123 75.8314377,36.6696123 L75.8314377,36.6696123 Z M39.2752799,43.5910549 C38.6044593,43.5910549 38.0606733,43.0602317 38.0606733,42.4056145 C38.0606733,41.7516454 38.6044593,41.2208222 39.2752799,41.2208222 C39.9461005,41.2208222 40.4898865,41.7516454 40.4898865,42.4056145 C40.4898865,43.0602317 39.9461005,43.5910549 39.2752799,43.5910549 L39.2752799,43.5910549 Z M33.6254797,51.8236764 C33.5554811,51.9092304 33.4504831,51.9584887 33.3396518,51.9584887 L33.3305779,51.9584887 C33.2171542,51.9558961 33.1108599,51.9014527 33.0434538,51.8107137 L30.5805375,48.4481849 C30.5027612,48.3392981 30.4923911,48.1973564 30.5546121,48.0800438 C30.6155369,47.9614349 30.739979,47.8881956 30.8760875,47.8881956 L36.0495078,47.8881956 C36.1875607,47.8881956 36.3145954,47.9646756 36.3755201,48.0871733 C36.4357968,48.2090228 36.4202415,48.3535571 36.3353357,48.4604995 L33.6254797,51.8236764 L33.6254797,51.8236764 Z M27.319118,43.5904068 C26.6482974,43.5904068 26.1051595,43.0602317 26.1051595,42.4056145 C26.1051595,41.7516454 26.6482974,41.2214703 27.319118,41.2214703 C27.9892904,41.2214703 28.5324283,41.7516454 28.5324283,42.4056145 C28.5324283,43.0602317 27.9892904,43.5904068 27.319118,43.5904068 L27.319118,43.5904068 Z M68.0129751,70.1367547 C68.6539814,70.3947128 69.2269335,70.949517 69.5497051,71.383768 L71.0825464,73.239381 C71.2264326,73.4124332 71.2594875,73.6490028 71.1687485,73.85511 C71.0773613,74.0586247 70.8790318,74.198622 70.6502398,74.2161217 L68.2197304,74.4008404 L68.2074158,74.4027848 C68.0551039,74.4150994 67.8963106,74.4215807 67.7342767,74.4215807 C66.7594803,74.4215807 66.027735,74.1448267 65.560429,73.6029852 C64.9939583,72.943831 64.8798864,72.0364408 65.264231,71.2334005 C65.7613511,70.1931425 66.9422547,69.7050962 68.0129751,70.1367547 L68.0129751,70.1367547 Z M66.504763,72.829111 C66.7270736,73.0877172 67.1412324,73.2192888 67.7342767,73.2192888 C67.8639038,73.2192888 67.9915866,73.2128074 68.112788,73.2037335 L68.112788,73.2089186 C68.2644518,73.1933633 68.5950011,73.1661416 69.3896156,73.1065131 L68.5703719,72.1155134 C68.280007,71.7240394 67.864552,71.378583 67.5424284,71.2489558 C67.421227,71.2003456 67.3026182,71.1744202 67.1898425,71.1744202 C66.7938315,71.1744202 66.5118925,71.4673776 66.3816171,71.7421872 C66.3129147,71.8841289 66.1217147,72.3838417 66.504763,72.829111 L66.504763,72.829111 Z M76.5061472,71.359787 C76.8114191,70.949517 77.3843712,70.3947128 78.0240813,70.1367547 C79.0948017,69.7057443 80.2770015,70.1924944 80.7741217,71.2334005 C81.15717,72.037089 81.0443943,72.943831 80.4772755,73.602337 C80.0106177,74.146123 79.277576,74.4209326 78.3034279,74.4209326 C78.1413939,74.4209326 77.9819525,74.4138031 77.8289924,74.4027848 L77.8160297,74.4014885 C77.6818656,74.3898221 75.3868166,74.2161217 75.3868166,74.2161217 C75.1593209,74.198622 74.959695,74.0586247 74.868956,73.85511 C74.7775689,73.6502991 74.8119201,73.4130814 74.95451,73.2387328 L76.5061472,71.359787 L76.5061472,71.359787 Z M77.9236203,73.2089186 L77.9236203,73.2037335 L77.9242684,73.2037335 C78.0467661,73.2141037 78.1744488,73.2179925 78.3034279,73.2179925 C78.8964722,73.2179925 79.3112791,73.0877172 79.5335897,72.829111 C79.916638,72.3831935 79.7247898,71.8841289 79.6567355,71.7421872 C79.4888683,71.3889531 79.0371176,71.0318303 78.4939798,71.2483077 C78.1738007,71.378583 77.7570493,71.7246875 77.4841841,72.0908843 L76.6467926,73.1052168 C77.4414072,73.1661416 77.7726046,73.1927152 77.9236203,73.2089186 L77.9236203,73.2089186 Z"></path>
        </g>
    </g>
</svg>