<?xml version="1.0" encoding="UTF-8"?>
<svg width="100px" height="100px" viewBox="0 0 100 100" version="1.1" xmlns="http://www.w3.org/2000/svg" xmlns:xlink="http://www.w3.org/1999/xlink">
    <!-- Generator: Sketch 42 (36781) - http://www.bohemiancoding.com/sketch -->
    <title>category_sport-music-lessons-black</title>
    <desc>Created with Sketch.</desc>
    <defs></defs>
    <g stroke="none" stroke-width="1" fill="none" fill-rule="evenodd">
        <g fill="#2B2C3D">
            <path d="M61.2244,27.175 C60.35,26.6438 59.7631,25.6818 59.7631,24.5885 L59.7636,23.023 C59.7631,21.3604 61.1229,20.0006 62.7866,20 L65.3949,20.0011 C67.0586,20.0006 68.419,21.3609 68.4184,23.0246 L68.4195,24.5885 C68.4202,25.6813 67.8331,26.6434 66.9582,27.1747 L66.9582,44.9495 C70.5512,45.2377 74.3845,48.2019 73.9499,51.7296 C73.6912,53.8355 72.3209,58.2486 73.1944,60.182 C74.6397,63.3842 77.8226,65.2811 77.822,68.6575 C77.8215,71.3998 76.6436,73.9144 74.6822,75.8758 C72.1632,78.3948 68.3533,80 64.0896,80 C56.5074,80 50.3595,74.9229 50.3595,68.6575 C50.3589,65.2833 53.5407,63.3842 54.9865,60.1825 C55.86,58.2492 54.4892,53.8355 54.23,51.7301 C54.0293,50.0957 54.7439,48.5825 55.9262,47.4003 C57.2971,46.0293 59.2969,45.1034 61.2249,44.9497 L61.2244,27.175 Z M57.0291,48.5031 C58.2549,47.2773 60.1237,46.486 61.7907,46.4865 L66.3913,46.486 C68.1802,46.486 70.1896,47.3981 71.3906,48.7546 C71.9344,49.3689 72.5498,50.3504 72.4036,51.5388 C72.3408,52.0439 72.1946,52.7635 72.0386,53.5262 C71.5191,56.0683 70.9291,58.9501 71.775,60.8227 C72.4147,62.241 73.3389,63.4156 74.1544,64.4517 C75.3329,65.95 76.2642,67.1328 76.2648,68.6575 C76.2637,70.903 75.3362,73.0172 73.5809,74.7724 C71.25,77.1033 67.7914,78.44 64.0913,78.44 C60.7865,78.4405 57.6902,77.3867 55.3759,75.4749 C53.1475,73.6337 51.92,71.2129 51.9211,68.6564 C51.9211,67.1334 52.8519,65.95 54.0315,64.4517 C54.8459,63.4156 55.7696,62.2405 56.4104,60.8244 C57.2568,58.9512 56.6662,56.0688 56.1457,53.5256 C55.9896,52.7641 55.8424,52.0444 55.7806,51.5393 C55.6168,50.2253 56.3695,49.1626 57.0291,48.5031 Z M35.3902,77.3902 L32.671,77.3902 C32.187,77.3902 31.7445,77.193 31.4564,76.8497 C31.1943,76.5377 31.0846,76.1276 31.156,75.7266 C31.1969,75.4937 31.2339,75.0246 31.2345,74.7242 L31.2559,63.0106 C31.2566,62.62 31.2903,62.0075 31.3318,61.615 L31.4824,60.1857 C31.5194,59.8583 31.6513,59.5591 31.8478,59.3146 C30.8958,55.4203 29.4856,52.4466 26.9018,48.8477 C26.6656,48.5188 26.203,47.9219 25.9824,47.674 C23.6376,45.0379 22,40.4709 22,36.5703 C22,29.0025 27.5097,22.6098 34.0302,22.6098 C40.5508,22.6098 46.0605,29.0025 46.0605,36.5696 C46.0605,40.4709 44.4229,45.0372 42.0781,47.674 C41.8361,47.9459 41.3722,48.5512 41.1587,48.8477 C38.5806,52.4387 37.1709,55.4065 36.2185,59.2882 C36.4267,59.5385 36.5653,59.8487 36.6002,60.1883 L36.7371,61.6254 C36.7747,62.014 36.8046,62.6239 36.8046,63.0125 L36.8046,74.7255 C36.8046,75.0415 36.8493,75.5041 36.8896,75.7065 C36.97,76.1114 36.8668,76.5253 36.606,76.8432 C36.3199,77.1903 35.8769,77.3901 35.3902,77.3902 Z M34.8575,63.5958 L33.2,63.5958 L33.1803,74.7268 C33.1797,74.9416 33.1673,75.1985 33.1472,75.4438 L34.8938,75.4438 C34.8711,75.1972 34.8575,74.9403 34.8575,74.7249 L34.8575,63.5958 Z M67.5039,69.6957 L58.6394,69.274 L58.5653,70.8319 L67.4298,71.2536 L67.5039,69.6957 Z M34.6849,60.6152 L33.3931,60.6152 L33.2845,61.6494 L34.7836,61.6494 L34.6849,60.6152 Z M67.808,59.3901 C65.7583,61.4398 62.4227,61.4403 60.373,59.3907 C58.3227,57.3404 58.3227,54.0053 60.373,51.9551 C62.4232,49.9049 65.7583,49.9049 67.8085,51.9551 C69.8582,54.0048 69.8582,57.3399 67.808,59.3901 Z M61.4758,53.058 C60.0338,54.5 60.0338,56.8458 61.4758,58.2878 C62.9173,59.7292 65.2631,59.7292 66.7051,58.2872 C68.1471,56.8452 68.1471,54.4994 66.7056,53.058 C65.2636,51.616 62.9178,51.616 61.4758,53.058 Z M30.5039,50.8023 C31.9831,53.3298 32.9735,55.7944 33.6932,58.6694 L34.3665,58.6694 C35.0861,55.7949 36.0763,53.3303 37.5553,50.8031 C36.4151,51.2314 35.232,51.4507 34.0302,51.4507 C32.8282,51.4507 31.6447,51.2311 30.5039,50.8023 Z M40.2794,46.7913 C40.4051,46.6345 40.5251,46.4898 40.6228,46.3803 C42.6458,44.1062 44.1134,39.9798 44.1134,36.5696 C44.1134,30.0575 39.4958,24.5562 34.0296,24.5562 C28.5634,24.5562 23.9464,30.0575 23.9464,36.5696 C23.9464,39.9798 25.4147,44.1062 27.437,46.3803 C27.5344,46.4899 27.6539,46.634 27.779,46.7899 C29.0977,48.0362 31.2437,49.5043 34.0302,49.5043 C36.8151,49.5043 38.9606,48.0373 40.2794,46.7913 Z M62.7838,27.6809 L65.3993,27.6804 L65.3987,44.8592 L62.7844,44.8587 L62.7838,27.6809 Z M65.3954,26.1005 C66.2288,26.0999 66.9058,25.4227 66.9075,24.5885 L66.908,23.0241 C66.908,22.1903 66.2292,21.5115 65.396,21.512 L62.7872,21.5126 C61.9539,21.512 61.2751,22.1909 61.2762,23.0235 L61.2751,24.5885 C61.2751,25.4223 61.9539,26.1011 62.7872,26.1005 L65.3954,26.1005 Z"></path>
        </g>
    </g>
</svg>