<?xml version="1.0" encoding="UTF-8"?>
<svg width="100px" height="100px" viewBox="0 0 100 100" version="1.1" xmlns="http://www.w3.org/2000/svg" xmlns:xlink="http://www.w3.org/1999/xlink">
    <!-- Generator: Sketch 41.1 (35376) - http://www.bohemiancoding.com/sketch -->
    <title>category_it-support-black</title>
    <desc>Created with Sketch.</desc>
    <defs></defs>
    <g stroke="none" stroke-width="1" fill="none" fill-rule="evenodd">
        <g fill="#2B2C3D">
            <path d="M38.9888081,36.552 L38.9885081,36.552 C38.6032081,36.552 38.2908081,36.2417 38.2905081,35.8584 C38.2902081,35.4751 38.6027081,35.1646 38.9883081,35.1643 L79.9320081,35.1437 C82.9346081,35.1437 85.3772081,37.5717 85.3772081,40.5559 L85.3772081,63.9889 C85.4039081,64.0624 85.4184081,64.1416 85.4184081,64.2242 C85.4184081,64.3069 85.4039081,64.3861 85.3772081,64.4596 L85.3772081,66.4216 C85.3772081,69.4057 82.9346081,71.8337 79.9323081,71.8337 L59.2416081,71.8337 L59.2416081,77.6213 L70.7420081,77.6213 C71.1277081,77.6213 71.4401081,77.9318 71.4401081,78.3151 C71.4401081,78.6984 71.1277081,79.0089 70.7420081,79.009 L46.6092081,79.009 C46.2236081,79.009 45.9111081,78.6984 45.9111081,78.3151 C45.9111081,77.9318 46.2236081,77.6213 46.6092081,77.6213 L57.8455081,77.6213 L57.8455081,71.8337 L35.1165081,71.8337 C32.1142081,71.8337 29.6715081,69.4058 29.6715081,66.4216 L29.6715081,65.537 C29.6715081,65.1537 29.9840081,64.8432 30.3696081,64.8432 C30.7552081,64.8432 31.0677081,65.1537 31.0677081,65.537 L31.0677081,66.4216 C31.0677081,68.6406 32.8841081,70.446 35.1165081,70.446 L79.9323081,70.446 C82.1647081,70.446 83.9811081,68.6406 83.9811081,66.4216 L83.9811081,64.9181 L31.8496081,64.9181 C31.4640081,64.9181 31.1516081,64.6075 31.1516081,64.2242 C31.1516081,63.8409 31.4640081,63.5304 31.8496081,63.5304 L83.9811081,63.5304 L83.9811081,40.5559 C83.9811081,38.3369 82.1647081,36.5315 79.9323081,36.5315 L38.9888081,36.552 Z M24.6956081,64.0677 L21.9632081,63.952 C21.7485081,63.9429 21.5500081,63.836 21.4251081,63.662 L17.8203081,58.6462 C17.7611081,58.5635 17.7206081,58.4691 17.7022081,58.3694 L16.5213081,52.0397 L14.2638081,49.5335 C14.1499081,49.4069 14.0865081,49.2434 14.0856081,49.0736 L14.0000081,29.8404 C13.9991081,29.6542 14.0736081,29.4755 14.2068081,29.3442 C14.3403081,29.2132 14.5251081,29.1463 14.7086081,29.1435 L16.5370081,29.171 L16.5370081,20.6939 C16.5370081,20.3109 16.8494081,20 17.2350081,20 L33.6721081,20 C34.0577081,20 34.3701081,20.3109 34.3701081,20.6939 L34.3701081,29.1649 L36.3800081,29.1435 C36.5643081,29.1427 36.7458081,29.2135 36.8779081,29.3439 C37.0105081,29.4741 37.0854081,29.6514 37.0856081,29.8366 L37.1096081,48.7833 C37.1099081,48.9556 37.0451081,49.1222 36.9287081,49.2501 L34.4623081,51.9559 L33.3515081,58.6423 C33.3328081,58.7536 33.2873081,58.8588 33.2189081,58.9484 L29.6054081,63.687 C29.4775081,63.8546 29.2807081,63.9553 29.0698081,63.9617 L26.1234081,64.049 C25.5965081,66.3205 25.2376081,73.0535 25.0962081,75.7031 C25.0714081,76.1649 25.0516081,76.5401 25.0359081,76.7999 C25.0108081,77.2215 24.9728081,77.8557 24.3144081,77.8557 C24.3066081,77.8557 24.2985081,77.8557 24.2907081,77.8554 C24.1304081,77.8518 23.6077081,77.7811 23.6018081,77.0222 C23.6012081,76.9437 23.6138081,76.8679 23.6375081,76.7974 C23.6537081,76.5338 23.6766081,76.1036 23.7020081,75.6295 C23.9426081,71.1182 24.2457081,66.3569 24.6956081,64.0677 Z M31.3272081,59.132 L19.8905081,59.1393 L22.3631081,62.5798 L25.0322081,62.6928 L28.6946081,62.5845 L31.3272081,59.132 Z M17.9943081,52.3247 L19.0067081,57.7521 L32.0856081,57.7437 L32.9874081,52.3165 L17.9943081,52.3247 Z M33.5147081,50.9285 L35.7132081,48.5168 L35.6956081,34.8823 L35.6903081,30.5387 L33.6793081,30.5601 L33.6773081,30.5601 L33.6723081,30.5601 L32.0752081,30.561 L32.0752081,39.6012 C32.0752081,39.9845 31.7628081,40.2951 31.3772081,40.2951 L19.5764081,40.2951 C19.1908081,40.2951 18.8784081,39.9845 18.8784081,39.6012 L18.8784081,30.5684 L17.2353081,30.5693 L17.2350081,30.5693 L17.2349081,30.5693 L17.2244081,30.5693 L15.3994081,30.5418 L15.4809081,48.8041 L17.4022081,50.9373 L33.5147081,50.9285 Z M26.9600081,45.225 L24.0593081,45.225 C23.6737081,45.225 23.3613081,44.9145 23.3613081,44.5312 C23.3613081,44.1479 23.6737081,43.8373 24.0593081,43.8373 L26.9600081,43.8373 C27.3456081,43.8373 27.6580081,44.1479 27.6580081,44.5312 C27.6580081,44.9145 27.3456081,45.225 26.9600081,45.225 Z M30.6791081,30.5618 L20.2745081,30.5676 L20.2745081,38.9073 L30.6791081,38.9073 L30.6791081,30.5618 Z M21.3871081,21.3878 L17.9331081,21.3878 L17.9331081,29.1812 L32.9740081,29.1728 L32.9740081,21.3878 L29.7173081,21.3878 L29.7173081,25.709 C29.7173081,26.0923 29.4049081,26.4028 29.0193081,26.4028 C28.6337081,26.4028 28.3212081,26.0923 28.3212081,25.709 L28.3212081,21.3878 L22.7833081,21.3878 L22.7833081,25.8832 C22.7833081,26.2665 22.4708081,26.5771 22.0852081,26.5771 C21.6996081,26.5771 21.3871081,26.2665 21.3871081,25.8832 L21.3871081,21.3878 Z"></path>
        </g>
    </g>
</svg>