<?xml version="1.0" encoding="UTF-8"?>
<svg width="100px" height="100px" viewBox="0 0 100 100" version="1.1" xmlns="http://www.w3.org/2000/svg" xmlns:xlink="http://www.w3.org/1999/xlink">
    <!-- Generator: Sketch 41.1 (35376) - http://www.bohemiancoding.com/sketch -->
    <title>category_gardening-black</title>
    <desc>Created with Sketch.</desc>
    <defs></defs>
    <g stroke="none" stroke-width="1" fill="none" fill-rule="evenodd">
        <g fill="#2B2C3D">
            <path d="M34.1696031,71.1737182 L24.7762932,65.4618687 C24.5574061,65.3144284 24.3703453,65.1254191 24.1936768,64.930564 C23.908539,64.614899 23.6636712,64.2602629 23.4486812,63.894585 C23.0635178,63.2411712 22.7699363,62.5357962 22.5419559,61.8141831 C22.2685094,60.9483774 22.0872943,60.055292 21.9703813,59.156361 C21.8716548,58.4003235 21.8190439,57.6384405 21.8002079,56.8765575 C21.7885166,56.3887705 21.7872176,55.900334 21.8190439,55.4131965 C21.8729538,54.6013006 22.0100018,53.793302 22.2470754,53.0138819 C22.4750557,52.2630407 22.795917,51.5407782 23.2109581,50.8743741 C23.5090863,50.3950308 23.8546291,49.9455652 24.2410915,49.5337717 C25.4056749,48.2938443 26.9274924,47.4299872 28.5584287,46.9701294 C29.4105946,46.7298083 30.2887411,46.601204 31.1733828,46.5713262 C31.3318649,46.5667796 31.4909964,46.5654806 31.6494785,46.5667796 C32.4133101,46.582368 33.1738941,46.6564129 33.907848,46.8778981 C35.2633892,47.2877431 36.4714902,48.0944428 37.5243567,49.0239011 C38.2615581,49.6740672 38.9331583,50.3969793 39.5540962,51.1575633 C40.2419344,52.000636 40.8680684,52.8930718 41.4324984,53.8225302 L41.4337974,53.8244787 L44.8723386,54.6480658 L22.0976866,21.6246904 L14.7776338,21.6246904 L14.6756597,21.6181953 C14.5873254,21.6006583 14.5632933,21.6000088 14.4795057,21.5655844 C14.3534994,21.5129736 14.2424321,21.4278869 14.159294,21.3194176 C13.946902,21.043373 13.946902,20.6471678 14.159294,20.3704737 C14.2216476,20.2899337 14.2995896,20.2210849 14.3879238,20.1704226 C14.5106825,20.0989758 14.6379877,20.0749437 14.7776338,20.0658504 C17.3854432,20.0658504 19.9977992,19.9138635 22.601062,20.0716961 C22.6835506,20.086635 22.7049846,20.086635 22.7835761,20.1165127 C22.936862,20.1749692 23.0492285,20.2756443 23.1486045,20.4029496 L47.0495185,55.0598594 C47.0845923,55.1176664 47.1021293,55.142348 47.1216148,55.1865152 L52.0261151,56.3614908 C52.3664618,55.7450995 52.7548728,55.1559879 53.1855023,54.5987026 C54.0571537,53.4691931 55.100927,52.4702365 56.2875939,51.6765271 C57.1826279,51.0776728 58.1556038,50.5983295 59.176644,50.2547351 C59.6709262,50.0884589 60.1775491,49.9494623 60.6900178,49.8520348 C61.185599,49.7585044 61.6870259,49.7104402 62.1910508,49.6896557 C62.3625232,49.6857586 62.5339956,49.68381 62.7061175,49.6851091 C63.77782,49.7058936 64.8404292,49.85853 65.8783569,50.128729 C66.5986708,50.3157898 67.3046954,50.5554614 67.9918841,50.8418982 C68.5153945,51.0607853 69.0285127,51.3069522 69.5266919,51.5790997 C69.9170515,51.7914916 70.2989672,52.0201215 70.6704907,52.2649892 C72.8249375,53.6828841 74.6871018,55.6606623 75.6477369,58.0820604 C75.7880325,58.4353974 75.9081931,58.7971782 76.0069196,59.1641552 C76.14072,59.6623344 76.2336009,60.170906 76.2849127,60.6840241 C76.334276,61.1828529 76.3414207,61.6810322 76.3115429,62.178562 L80.6080956,63.2073963 L80.7315038,63.2483159 C80.7698253,63.268451 80.8100953,63.2853384 80.8464682,63.3087209 C80.993259,63.4022514 81.1056254,63.545145 81.1627829,63.7101223 C81.2011043,63.8198905 81.1959082,63.8504179 81.2056509,63.9653823 L81.2056509,67.9826428 C81.3290591,68.0326556 81.4511683,68.0865655 81.5713288,68.1443725 C82.2474757,68.4697803 82.8632175,68.9192458 83.3808823,69.4622417 C83.899846,70.0065367 84.3200833,70.6443621 84.6123658,71.3373963 C84.8533365,71.9070225 85.008571,72.512372 85.0709246,73.1281138 C85.1397733,73.8101063 85.0975548,74.50379 84.9429698,75.1721427 C84.6597805,76.4016777 83.994026,77.5318367 83.060021,78.3801055 C82.5404077,78.8523041 81.9415533,79.2355189 81.2952842,79.509615 C80.5288546,79.8337238 79.6994219,79.9993505 78.867391,79.9993505 C78.0353601,79.9993505 77.2059274,79.8337238 76.4394977,79.509615 C75.7932287,79.2355189 75.1950238,78.8523041 74.6747609,78.3801055 C73.9823762,77.7513734 73.4374317,76.9674068 73.0866928,76.1029001 L48.647979,76.1029001 C48.2758059,76.7459216 47.8120511,77.3350331 47.2742512,77.8475018 C46.5935578,78.4963689 45.7966008,79.0205289 44.9307952,79.3868563 C43.9727581,79.7921547 42.9361295,80 41.8962533,80 C40.8570267,80 39.8197486,79.7921547 38.862361,79.3868563 C37.9965553,79.0205289 37.1995983,78.4963689 36.5189049,77.8475018 C35.8395105,77.1999337 35.2783281,76.4302564 34.8710811,75.5852353 C34.5378791,74.8928506 34.3079502,74.1511025 34.1916867,73.3918176 C34.0799698,72.6585133 34.0728252,71.908971 34.1696031,71.1737182 L34.1696031,71.1737182 L34.1696031,71.1737182 Z M78.7465809,69.0894192 C78.0847234,69.1141009 77.4384543,69.2608916 76.8402495,69.5486275 C75.5743416,70.1585236 74.6266967,71.3380459 74.3110316,72.7078765 C74.1856749,73.2482744 74.1583952,73.8107558 74.228543,74.3608964 C74.2869995,74.8194552 74.4136553,75.2676217 74.6039637,75.6885085 C74.8358411,76.2029257 75.162548,76.6725262 75.5607017,77.0713294 C75.9588554,77.4694831 76.4291055,77.79619 76.9428731,78.0280675 C77.5092516,78.283977 78.1249934,78.4236231 78.7465809,78.439861 C79.3714159,78.4554494 79.9994985,78.3469801 80.5814655,78.1170512 C81.1075739,77.9092059 81.5934124,77.6065311 82.0117011,77.2259144 C82.6833014,76.6166677 83.1704388,75.8125662 83.3964707,74.9337701 C83.5146827,74.4745618 83.5620974,73.9971671 83.5380652,73.5236694 C83.5140332,73.0573164 83.4205027,72.5948606 83.2600722,72.1564368 C83.078857,71.6608556 82.8125552,71.1971007 82.4767551,70.7905033 C82.0941897,70.327398 81.6239397,69.938987 81.0958827,69.6519006 C80.6594074,69.414827 80.1852603,69.2485508 79.6961743,69.1615156 C79.5013192,69.1264417 79.3058147,69.1069561 79.1083616,69.0939658 C78.9875515,69.0894192 78.867391,69.0881202 78.7465809,69.0894192 L78.7465809,69.0894192 L78.7465809,69.0894192 Z M41.7351731,65.9723888 C41.4708199,65.982781 41.2077656,66.0022665 40.9460105,66.0425366 C40.2893491,66.1425621 39.6495752,66.3491084 39.058515,66.6517832 C37.9432949,67.2233579 37.0112385,68.1326811 36.4130337,69.2336119 C36.0973686,69.8162283 35.8752339,70.4488575 35.7583209,71.1009723 C35.6375108,71.7784181 35.6290671,72.475999 35.7329897,73.156043 C35.8258706,73.7633411 36.0090343,74.3550507 36.2753362,74.908439 C36.6013935,75.5852353 37.050859,76.2009771 37.5945045,76.7192914 C38.1387994,77.2382552 38.7766248,77.6578429 39.4696591,77.9514245 C40.2354392,78.2755333 41.064872,78.44116 41.8962533,78.44116 C42.7282841,78.44116 43.5570674,78.2755333 44.323497,77.9514245 C45.0165314,77.6578429 45.6537071,77.2382552 46.1986516,76.7192914 C46.7422971,76.2009771 47.1911131,75.5852353 47.5171705,74.908439 C47.7834723,74.3557003 47.9672855,73.7633411 48.0595169,73.156043 C48.1634395,72.475999 48.1549958,71.7784181 48.0341858,71.1009723 C47.9179222,70.4488575 47.6957876,69.8162283 47.3794729,69.2336119 C46.7812681,68.1326811 45.8498612,67.2233579 44.7346411,66.6517832 C44.1429314,66.3491084 43.503807,66.1425621 42.8464962,66.0425366 C42.584741,66.0022665 42.3223363,65.982781 42.0579829,65.9723888 C41.8956038,65.9704402 41.8962533,65.9704402 41.7351731,65.9723888 L41.7351731,65.9723888 L41.7351731,65.9723888 Z M78.867391,76.1029001 C80.1586301,76.1029001 81.2056509,75.0558792 81.2056509,73.7646401 C81.2056509,72.473401 80.1586301,71.4263801 78.867391,71.4263801 C77.5761518,71.4263801 76.529131,72.473401 76.529131,73.7646401 C76.529131,75.0558792 77.5761518,76.1029001 78.867391,76.1029001 L78.867391,76.1029001 L78.867391,76.1029001 Z M41.8962533,74.5440601 C43.1874924,74.5440601 44.2345133,73.4970392 44.2345133,72.2058001 C44.2345133,70.914561 43.1874924,69.8675402 41.8962533,69.8675402 C40.6050142,69.8675402 39.5579933,70.914561 39.5579933,72.2058001 C39.5579933,73.4970392 40.6050142,74.5440601 41.8962533,74.5440601 L41.8962533,74.5440601 L41.8962533,74.5440601 Z M79.646811,67.577994 L79.646811,64.5798251 L40.7472583,55.2631581 C40.7063388,55.2495182 40.6647697,55.2397755 40.6257987,55.2228881 C40.5075867,55.1735248 40.4030145,55.0942838 40.3224744,54.9949077 C40.2958443,54.9617824 40.2744102,54.9247599 40.2503781,54.889686 C40.1730856,54.752638 40.0918961,54.6175385 40.0100569,54.4830886 C39.4352347,53.5575274 38.7993579,52.6702876 38.0933333,51.8395558 C37.5516364,51.2017305 36.9690199,50.5970304 36.3318441,50.053385 C35.4647393,49.3122865 34.4735769,48.6569242 33.366151,48.3438571 C32.8004221,48.1834266 32.213259,48.1373109 31.6280444,48.1256195 C31.5254208,48.12497 31.5260703,48.12497 31.4247457,48.12497 C29.5015269,48.1503012 27.5627197,48.7368147 26.0610372,49.9637517 C25.819417,50.1612048 25.5907872,50.3735967 25.3777457,50.6009275 C25.0614311,50.9373771 24.7782418,51.3056532 24.5346731,51.6979612 C24.1702942,52.2831757 23.8942496,52.9216506 23.7039412,53.5841576 C23.5227261,54.2128897 23.4175044,54.8630559 23.3746363,55.5158201 C23.345408,55.9561924 23.3480061,56.3972142 23.3583984,56.838236 C23.3759354,57.5462092 23.4246491,58.2528833 23.5162309,58.9550108 C23.6831567,60.2404042 23.986481,61.537489 24.572345,62.7014229 C24.7366728,63.0274803 24.9243831,63.3424958 25.1445692,63.6334793 C25.2835658,63.817942 25.4368517,63.9946105 25.6128707,64.1446489 L25.6200154,64.1504945 L34.5547666,69.5837014 C34.6255638,69.3849493 34.7041554,69.1894447 34.7911906,68.9978374 C35.5147521,67.3967788 36.7839077,66.0659192 38.3472943,65.2644156 C39.0877433,64.8850979 39.8879478,64.6272398 40.7102359,64.5012335 C41.0369427,64.4512207 41.3649487,64.4265391 41.6955527,64.4141983 C41.8969028,64.4116003 41.8962533,64.4116003 42.0969539,64.4141983 C42.427558,64.4265391 42.7555638,64.4512207 43.0829202,64.5012335 C43.9045588,64.6272398 44.7054129,64.8850979 45.4452124,65.2644156 C46.8384256,65.978884 48.0023594,67.114239 48.7493036,68.4899153 C49.1455087,69.218673 49.4235018,70.0104338 49.5689936,70.8268762 C49.7196815,71.672547 49.7307232,72.5428993 49.6008199,73.3918176 C49.5410643,73.7821771 49.4514311,74.1673404 49.333219,74.5440601 L72.6807448,74.5440601 C72.6216388,74.0744596 72.6164426,73.5983639 72.6645069,73.1281138 C72.7268605,72.512372 72.8814455,71.9070225 73.1224162,71.3373963 C73.4153481,70.6443621 73.8349359,70.0065367 74.3538997,69.4622417 C74.8715645,68.9192458 75.4879558,68.4697803 76.1641026,68.1443725 C76.7181404,67.8774211 77.3111491,67.6942574 77.9184471,67.600727 C78.1802024,67.5611065 78.4426071,67.5409715 78.7069604,67.5312288 C78.867391,67.5292802 78.8667415,67.5292802 79.0278216,67.5312288 C79.2350174,67.5390229 79.4415637,67.5526628 79.646811,67.577994 L79.646811,67.577994 L79.646811,67.577994 Z M74.7669923,61.8083374 C74.7780341,61.322499 74.7488058,60.83731 74.6702144,60.3547192 C74.6104588,59.9844947 74.5234235,59.6181673 74.4123562,59.2602836 C73.6861966,56.9233227 71.9552347,55.0124447 69.9566719,53.662749 C69.6241194,53.4380163 69.2818242,53.2269234 68.9317347,53.0307693 C68.4822692,52.7794064 68.0204628,52.5507766 67.5476147,52.3474778 C66.9299243,52.0805265 66.2940475,51.8570927 65.6451803,51.6797747 C64.3584879,51.3283862 63.0003485,51.1530167 61.6681899,51.2855181 C60.988146,51.3530678 60.3210924,51.5147975 59.6735243,51.7323856 C58.6057188,52.0915683 57.5970195,52.6222234 56.6941913,53.2970712 C55.7445979,54.0076424 54.9112681,54.868252 54.2130377,55.826289 C53.9986972,56.1211696 53.79345,56.4257929 53.6031416,56.7395095 L74.7669923,61.8083374 L74.7669923,61.8083374 Z"></path>
        </g>
    </g>
</svg>