<?xml version="1.0" encoding="UTF-8"?>
<svg width="100px" height="100px" viewBox="0 0 100 100" version="1.1" xmlns="http://www.w3.org/2000/svg" xmlns:xlink="http://www.w3.org/1999/xlink">
    <!-- Generator: Sketch 41.1 (35376) - http://www.bohemiancoding.com/sketch -->
    <title>category_homework-black</title>
    <desc>Created with Sketch.</desc>
    <defs></defs>
    <g stroke="none" stroke-width="1" fill="none" fill-rule="evenodd">
        <g fill="#2B2C3D">
            <path d="M93.5631232,59.8092735 L78.9929435,59.8092735 L78.8508128,59.9556895 C76.9088364,61.9605177 73.9533754,62.9347199 71.6764277,63.231123 L71.2564637,63.2861183 L71.2564637,64.8859812 L71.543582,65.0131132 C73.8133874,66.018027 75.1911265,67.3086307 76.0281976,68.7770763 C76.863126,70.2469503 77.1581007,71.9232352 77.1581007,73.7087964 C77.1581007,74.2487501 77.1316744,74.7972745 77.0845356,75.3507985 L77.0402537,75.8728966 L88.2307231,75.8728966 C88.6264035,75.8728966 88.9456618,76.1914407 88.946376,76.5906922 C88.9456618,76.9899437 88.6256892,77.3084878 88.2307231,77.3092021 L76.8538411,77.3092021 L76.7909893,77.7177385 C76.6859983,78.3941091 76.5695798,79.068337 76.4545896,79.7339942 C76.1060481,81.7481073 75.7703625,83.6679427 75.7696483,85.4363626 C75.7696483,86.678399 75.9367768,87.8518698 76.4053081,88.9174928 C76.8716967,89.9824015 77.6459161,90.9258921 78.7943891,91.6815416 C79.0036568,91.8193869 79.1157901,92.0465103 79.1165043,92.2829186 C79.1165043,92.4193355 79.0786504,92.5550381 78.9972288,92.678599 C78.8600977,92.8878668 78.6336885,92.9992858 78.3987087,93 C78.2651487,93 78.1315887,92.9621461 78.005171,92.8800103 C76.5624375,91.9258064 75.6668,90.7973317 75.1118476,89.5374396 C74.5590378,88.2775476 74.3540554,86.875525 74.3540554,85.4006514 C74.3533411,83.4793875 74.7033111,81.4445619 75.0425678,79.4890152 C75.1375596,78.9404908 75.2289804,78.4012513 75.3154015,77.8691541 L75.406108,77.3099163 L12.4179356,77.3099163 C12.0229695,77.3092021 11.7029969,76.9906579 11.7022827,76.5914065 C11.7029969,76.192155 12.0222552,75.8743251 12.4179356,75.8743251 L75.6039482,75.8743251 L75.6453733,75.4379339 C75.6996543,74.8651258 75.7317944,74.3037454 75.7317944,73.755221 C75.7317944,72.3646259 75.5260978,71.0483101 74.9411479,69.8619833 C74.3583407,68.6749421 73.3927092,67.6393166 71.9564037,66.8208154 L71.3193155,66.4572751 L71.235037,67.1829272 C71.1886124,67.5557524 70.9000657,67.8264434 70.541525,67.8257292 L31.5177271,67.8257292 C31.1220467,67.825015 30.8006457,67.5057566 30.7999314,67.1072194 L30.7999314,59.8092735 L26.2403223,59.8092735 L26.3003171,60.3449419 C26.3274576,60.5927778 26.3453133,60.8391852 26.3453133,61.0848784 C26.3453133,61.56698 26.2767477,62.0797932 26.1296175,62.6576008 C26.1074765,62.7433077 26.0574808,62.8304431 25.9717738,62.9325772 L25.7603634,63.1825558 L25.9153501,63.4711025 C26.1974688,63.9953433 26.3453133,64.5474388 26.3453133,65.1195326 C26.3453133,65.4923578 26.2710339,65.8794675 26.1046196,66.3208582 C25.9996286,66.60012 25.7317944,66.7843899 25.4339628,66.7843899 L14.5134703,66.7843899 C14.2170671,66.7851041 13.9470902,66.5994058 13.8428135,66.3187155 L13.8420992,66.3172871 C13.6763992,65.8737537 13.602834,65.4887867 13.602834,65.1195326 C13.602834,64.5474388 13.7506785,63.9953433 14.032083,63.4711025 L14.1884981,63.1811273 L13.974945,62.9311488 C13.8899523,62.8311573 13.8399566,62.7440219 13.8163872,62.6540297 C13.6699711,62.0747936 13.602834,61.5648373 13.602834,61.0848784 C13.602834,60.8391852 13.6199754,60.5942062 13.6492586,60.3477988 L13.7135388,59.8092735 L5.71636717,59.8092735 C5.3206868,59.8092735 5,59.4907294 5,59.0907636 C5,58.6922264 5.3206868,58.3743965 5.71636717,58.3736823 L14.2063537,58.3736823 L14.3427706,58.1158472 C15.1477016,56.5916921 16.5547239,55.4339342 18.2438648,54.9575465 L18.435277,54.9032654 L18.5331257,54.7311373 C19.4723309,53.0727081 23.0398823,47.5331829 30.1928406,44.2556067 L30.1942691,44.2548924 L30.3878239,44.2177528 L30.7992172,44.1563295 L30.7992172,37.0240836 C30.7992172,36.9005228 30.8377853,36.7905322 30.8913522,36.6898266 C30.9749164,36.5334114 31.1084764,36.4134217 31.2770334,36.3534268 C31.352027,36.3270005 31.4305917,36.3055738 31.5155844,36.3055738 L40.0091421,36.3055738 L39.6977402,35.6234894 C39.0685084,34.2428935 38.7128246,32.7558781 38.6206897,31.2260092 C38.6078336,31.0224552 38.589978,30.8196155 38.5878353,30.6139188 L38.5871211,30.6124904 L38.5799789,30.4767877 L38.6064052,29.9568323 C38.6664,28.5112419 38.9670885,27.1292175 39.4799017,25.8507556 L39.5070423,25.7779048 C39.5806074,25.5986344 39.6634574,25.4257921 39.7441648,25.2508071 L39.7477359,25.2443791 C39.8341571,25.0593949 39.9184356,24.8729823 40.0141416,24.6929977 C40.2726909,24.2008971 40.5662372,23.7316516 40.8862098,23.2816901 L41.1747564,22.8960089 L41.4675885,22.514613 C41.7097106,22.2239237 41.9632603,21.9425192 42.2303803,21.674685 C44.4866154,19.4191641 47.5949204,18.0235694 51.0274834,18.0235694 C54.4600463,18.0235694 57.5690655,19.4191641 59.8253007,21.674685 C62.0808216,23.9309202 63.4764163,27.0420821 63.4764163,30.4767877 C63.4764163,30.8189012 63.4578465,31.1638717 63.4292775,31.511699 L63.4235637,31.5838357 L63.4392766,31.6538297 L63.4642745,31.8580979 L63.4399909,32.0152273 L63.3985658,32.0945062 L63.3592835,32.1680713 L63.3478559,32.2509213 C63.1821558,33.4193926 62.8464703,34.5507242 62.3579407,35.6242036 L62.0479673,36.3055738 L70.5400966,36.3055738 C70.9343485,36.306288 71.2550353,36.6241179 71.2550353,37.0240836 L71.2550353,44.1734708 L71.702854,44.2070394 C71.8085593,44.2141816 71.8785533,44.2298946 71.9199783,44.2498929 L71.922121,44.2506071 L71.9242636,44.2513213 C74.3483416,45.338371 76.6474302,47.1082193 78.320144,49.0101991 C79.9992858,50.9078936 81.0256264,52.9527183 81.0141988,54.4640174 C81.0141988,55.7060538 80.7785047,56.7723909 80.3792532,57.6987401 L80.0885638,58.3715396 L93.5631232,58.3715396 C93.9566609,58.3722538 94.2787761,58.6922264 94.2794903,59.0907636 C94.2794903,59.4900151 93.9573751,59.8085593 93.5631232,59.8092735 L93.5631232,59.8092735 Z M15.5419535,65.3473702 L24.9854298,65.3473702 L24.8818673,64.7795618 C24.7533069,64.1067623 24.3254864,63.6310888 23.9655172,63.3146873 L23.8291004,63.1954118 L16.1176185,63.1954118 L15.9804874,63.3154015 C15.6233751,63.6310888 15.193412,64.1067623 15.06628,64.780276 L14.9634317,65.3473702 L15.5419535,65.3473702 L15.5419535,65.3473702 Z M15.0355684,61.0827358 L15.0434248,61.3134303 L15.0762792,61.7598206 L24.8775819,61.7598206 L24.9040082,61.306288 L24.9104362,61.0827358 C24.909722,58.3615404 22.6977688,56.1474445 19.9722881,56.1460161 C17.2468074,56.1474445 15.0362826,58.3615404 15.0355684,61.0827358 L15.0355684,61.0827358 Z M30.7970745,45.554781 L30.0978488,45.9033226 C25.1711282,48.3559695 22.1413879,51.9206639 20.6643716,54.0490529 L20.2286947,54.6775705 L20.9857726,54.7989887 C22.9891724,55.1196755 24.6861698,56.3774248 25.6046625,58.1144188 L25.7403651,58.3715396 L30.7970745,58.3715396 L30.7970745,45.554781 L30.7970745,45.554781 Z M59.7281662,23.7437934 C57.7147673,21.1447305 54.5657515,19.4584464 51.0260549,19.4584464 C47.4613605,19.4591606 44.2987744,21.1668714 42.2846613,23.7987887 C42.1789561,23.9373482 42.0711082,24.0737651 41.971831,24.2173242 C41.8646973,24.3708825 41.768277,24.5308688 41.669714,24.6901408 C41.348313,25.2079536 41.0640517,25.7493358 40.8312145,26.3185727 C40.7397937,26.5428392 40.6576579,26.771391 40.5805217,27.0020855 C40.4898152,27.2756335 40.4133931,27.5548953 40.3433991,27.837014 C40.2834043,28.0812787 40.2298374,28.3276862 40.1862697,28.578379 C40.1434163,28.8226438 40.0998486,29.0661943 40.0734223,29.3154587 L40.0727081,29.3176013 C40.0498529,29.5390109 40.0455675,29.7661343 40.0355684,29.991115 L40.0105705,30.474645 L40.0112847,30.4939291 L40.011999,30.4939291 C40.0134274,31.1510156 40.0905637,31.7895323 40.2012685,32.4094792 L40.2976888,32.953004 L40.8255007,32.7837328 C51.738851,29.2811759 57.5304974,25.8428992 59.6167471,24.4380196 L60.0438534,24.1501871 L59.7281662,23.7437934 L59.7281662,23.7437934 Z M40.6947976,34.3314573 L40.9040654,34.8185584 C41.0861926,35.243522 41.2926035,35.6620575 41.5347256,36.0691655 L41.6754278,36.3055738 L60.3809673,36.3055738 L60.5209553,36.0670228 C61.1487587,35.0013999 61.5658658,33.8422135 61.805131,32.6473159 L61.8858384,32.2452076 L61.5008714,32.1016484 C58.3489987,30.9210353 56.1948976,29.5768648 55.2199811,28.8912093 L54.9857155,28.7262235 L54.7278805,28.8526412 C51.5510099,30.4117933 47.1142474,32.2780619 41.2004685,34.1693283 L40.6947976,34.3314573 L40.6947976,34.3314573 Z M62.05011,30.7974745 L62.0222552,30.0553953 C61.9651173,28.5776648 61.6194326,27.1727852 61.0344828,25.8986087 L60.7980745,25.3829386 L60.3259721,25.6986258 C59.6281747,26.1650144 58.585407,26.8142445 57.163386,27.5934634 L56.4334486,27.9934291 L57.1441019,28.4269634 C58.1311602,29.0290547 59.5353255,29.7918464 61.3587407,30.5210696 L62.05011,30.7974745 L62.05011,30.7974745 Z M69.8208725,37.741165 L32.2290946,37.741165 L32.2290946,66.3858526 L69.3380567,66.3858526 L69.3380567,65.9044653 L69.8208725,65.9044653 L69.8208725,37.741165 L69.8208725,37.741165 Z M79.5807502,54.4668743 C79.5771791,53.8676399 79.3550553,53.2076965 78.9822301,52.4799017 C77.8566123,50.3136588 75.2846899,47.5510385 71.9556895,45.8640402 L71.2536068,45.5097849 L71.2536068,52.3513413 L72.418507,52.0663657 L72.4206497,52.0663657 L72.5899209,52.044939 C72.9034654,52.0442248 73.2020113,52.2656344 73.2812902,52.5948919 L73.3020027,52.7655915 C73.3020027,53.0877068 73.0813073,53.3841099 72.7541925,53.4619604 L71.2543211,53.8276433 L71.2543211,61.8398137 L71.8157015,61.748393 C73.0505957,61.5462675 74.9482901,61.0920207 76.5838642,60.0063995 C77.4002228,59.4621604 78.1523012,58.7550781 78.6993972,57.8387281 C79.2464932,56.9245208 79.5807502,55.8039025 79.5807502,54.4733023 L79.5807502,54.4668743 L79.5807502,54.4668743 Z M51.0260549,56.0574522 C49.9261492,56.0574522 48.9312345,55.6103477 48.2062966,54.886124 C47.482073,54.1611862 47.0349684,53.1655572 47.0349684,52.0635088 C47.0349684,50.9614604 47.482073,49.9651173 48.2055824,49.2401794 C48.9305202,48.5159558 49.9247207,48.0695655 51.0260549,48.0695655 C52.1266749,48.0695655 53.1215896,48.5159558 53.8465274,49.2401794 C54.5700369,49.9651173 55.0178556,50.9614604 55.0178556,52.0635088 C55.0178556,53.1655572 54.5700369,54.1611862 53.8465274,54.886124 C53.1215896,55.6103477 52.1266749,56.0574522 51.0260549,56.0574522 L51.0260549,56.0574522 Z M51.0260549,49.5065851 C49.6126046,49.5072994 48.4669885,50.6529155 48.4669885,52.0642231 C48.4669885,53.4755307 49.6126046,54.6211468 51.0260549,54.6225752 C52.4402194,54.6211468 53.5851213,53.4755307 53.5858355,52.0642231 C53.5851213,50.6529155 52.4402194,49.5072994 51.0260549,49.5065851 L51.0260549,49.5065851 Z M41.3383139,27.8462989 C41.5375825,27.1135046 41.809702,26.4107077 42.1611005,25.7536211 C42.3103734,26.1214467 42.4489329,26.4935577 42.5632089,26.8756678 L42.6267748,27.0870783 L41.4097363,28.1491301 L41.3383139,27.8462989 L41.3383139,27.8462989 Z M32.758335,26.4949861 L32.4733594,26.5249836 L32.3626546,26.7885324 C30.9949147,30.0525384 28.8822387,34.3757392 25.6746565,39.6874268 L25.4011085,40.1402451 L25.8789247,40.3702254 C26.213896,40.5309259 26.5602948,40.6730566 26.9152644,40.8009028 L25.301117,42.2100677 L25.5010999,41.7715339 C23.8919521,41.0415964 22.453504,39.9809731 21.2714624,38.6289461 C19.2109248,36.2684341 18.2017256,33.3486844 18.2010113,30.4382196 C18.2017256,26.9649459 19.6394595,23.5152416 22.4506471,21.060452 C24.804731,19.0063423 27.7166243,18 30.6220895,18 C34.0989344,18.0007142 37.5557809,19.441305 40.0169985,22.2610633 L40.0177128,22.2610633 L40.2376939,22.5374682 C39.6556009,23.3274005 39.1520727,24.1780419 38.752107,25.0865354 C36.0051996,26.0335971 33.8332429,26.3828529 32.758335,26.4949861 L32.758335,26.4949861 Z M32.7654772,19.6541439 C32.0548239,19.5141559 31.3320287,19.4434477 30.6085193,19.4434477 C28.0458818,19.4434477 25.469674,20.3290861 23.3912807,22.1439305 C20.9036368,24.315173 19.6301746,27.3713396 19.6308888,30.4389338 C19.6301746,33.0108562 20.5258121,35.5984916 22.348513,37.6854555 C22.7849042,38.1861269 23.2684341,38.6182327 23.7619633,39.0160558 L24.1947833,39.3638831 L24.4804731,38.8889238 C30.3956804,29.0769077 32.4926435,22.6795989 33.1390167,20.2505214 L33.2711482,19.7534211 L32.7654772,19.6541439 L32.7654772,19.6541439 Z M38.647116,22.9024369 C37.632203,21.8253864 36.4473045,20.9933149 35.1667,20.4183641 L34.648173,20.1848127 L34.5010428,20.7333371 C34.2839185,21.5425535 33.9253778,22.7174528 33.3668543,24.238751 L33.0811645,25.0186841 L33.9025226,24.8794103 C35.0424249,24.6851413 36.6022912,24.3365997 38.4549896,23.6873697 L39.1549296,23.4416764 L38.647116,22.9024369 L38.647116,22.9024369 Z"></path>
        </g>
    </g>
</svg>