<?xml version="1.0" encoding="UTF-8"?>
<svg width="100px" height="100px" viewBox="0 0 100 100" version="1.1" xmlns="http://www.w3.org/2000/svg" xmlns:xlink="http://www.w3.org/1999/xlink">
    <!-- Generator: Sketch 41.1 (35376) - http://www.bohemiancoding.com/sketch -->
    <title>category_event-helper-black</title>
    <desc>Created with Sketch.</desc>
    <defs></defs>
    <g stroke="none" stroke-width="1" fill="none" fill-rule="evenodd">
        <g fill="#2B2C3D">
            <path d="M64.7815711,56.6469333 C65.0332116,56.6564291 65.2828174,56.6720295 65.5324231,56.7039085 C66.0797921,56.773771 66.6190218,56.904 67.1365467,57.0939174 C67.8650155,57.3618365 68.5507529,57.7443844 69.1612016,58.2246041 C70.1908252,59.0331095 70.9993306,60.1156386 71.4802286,61.333823 C71.704738,61.9028968 71.8580285,62.4997801 71.935352,63.1061591 C71.9665527,63.3557649 71.9828314,63.6060488 71.9923272,63.8570111 C72.089999,71.6687201 71.9943621,71.3424691 71.9943621,79.1541781 C71.991649,79.1928398 71.991649,79.2315016 71.986901,79.2701633 C71.9706224,79.384792 71.9312824,79.4960294 71.8709158,79.5950577 C71.8105491,79.6940861 71.7305126,79.7802272 71.6355538,79.8473765 C71.3113377,80.0759557 70.8582491,80.044755 70.5679469,79.7741227 C70.4546747,79.6683116 70.371925,79.531978 70.3305501,79.3834355 C70.3020625,79.2837289 70.3061322,79.2565978 70.2986711,79.1541781 C70.2986711,71.3567129 70.3943081,71.6972076 70.2966363,63.9004208 C70.27154,63.2329968 70.148772,62.5784601 69.903236,61.9564807 C69.3090659,60.4513854 68.0705332,59.2433752 66.5518724,58.6865103 C65.9685548,58.4721749 65.3587843,58.3656856 64.7388397,58.3419459 C54.9119716,58.2191779 45.0823904,58.2191779 35.2555224,58.3419459 C34.6355777,58.3656856 34.0258073,58.4721749 33.4424896,58.6865103 C31.8790626,59.2596538 30.6154337,60.5226045 30.0422901,62.0867097 C29.8279548,62.6707057 29.7207871,63.2797979 29.6977258,63.9004208 C29.5966626,71.6972076 29.6956909,71.3567129 29.6956909,79.1541781 C29.6929778,79.1928398 29.6929778,79.2315016 29.6875516,79.2701633 C29.6719513,79.384792 29.6326112,79.4960294 29.5722447,79.5950577 C29.5118781,79.6940861 29.4311632,79.7802272 29.3368827,79.8473765 C29.0126666,80.0759557 28.5588997,80.044755 28.2692757,79.7741227 C28.1560036,79.6683116 28.0732539,79.531978 28.0312007,79.3834355 C28.0033914,79.2837289 28.0067828,79.2565978 28,79.1541781 L28,64.0421805 C28.0033914,63.7912183 28.0128873,63.5416126 28.0379834,63.2920069 C28.1003849,62.6815581 28.2387533,62.0792487 28.4496972,61.5027138 C28.9217776,60.2160235 29.7553793,59.071093 30.8331604,58.2246041 C31.4436092,57.7443844 32.1293466,57.3618365 32.8584937,57.0939174 C33.3760185,56.904 33.9152482,56.773771 34.461939,56.7039085 C34.7115447,56.6720295 34.9618287,56.6564291 35.2127909,56.6469333 C45.0681467,56.5234869 54.9262154,56.5234869 64.7815711,56.6469333 L64.7815711,56.6469333 L64.7815711,56.6469333 Z M50.0182076,75.8109539 C50.6666398,75.8109539 51.1929823,76.3379746 51.1929823,76.9864068 C51.1929823,77.634839 50.6666398,78.1611815 50.0182076,78.1611815 C49.3697754,78.1611815 48.8434329,77.634839 48.8434329,76.9864068 C48.8434329,76.3379746 49.3697754,75.8109539 50.0182076,75.8109539 L50.0182076,75.8109539 L50.0182076,75.8109539 Z M50.0182076,68.6015543 C50.6666398,68.6015543 51.1929823,69.1278967 51.1929823,69.776329 C51.1929823,70.4247612 50.6666398,70.9511037 50.0182076,70.9511037 C49.3697754,70.9511037 48.8434329,70.4247612 48.8434329,69.776329 C48.8434329,69.1278967 49.3697754,68.6015543 50.0182076,68.6015543 L50.0182076,68.6015543 L50.0182076,68.6015543 Z M50.0182076,64.6132892 C48.1495562,65.6130686 46.2510606,66.5585859 44.3267905,67.4478062 C44.2460756,67.4790069 44.163326,67.4973203 44.0758283,67.4946073 C43.8513188,67.4885028 43.6444445,67.351491 43.5508424,67.148008 C43.5196417,67.0795021 43.5040413,67.0089614 43.4972586,66.9350292 C43.4355354,64.9361488 43.4355354,62.9345552 43.4972586,60.936353 C43.5026848,60.8746299 43.5142155,60.8149415 43.5365986,60.7572881 C43.6098524,60.568049 43.7719605,60.4384982 43.9659475,60.3896623 C44.0154617,60.3808447 44.0622628,60.3760968 44.1124552,60.3760968 C44.1877439,60.3808447 44.2569281,60.396445 44.3267905,60.4235761 C46.2510606,61.3127964 48.1495562,62.2583137 50.0182076,63.258093 C51.886859,62.2583137 53.7853546,61.3127964 55.7096246,60.4235761 C55.803905,60.3869492 55.8961506,60.3720271 55.9972138,60.3781316 C56.2217233,60.4059409 56.4170669,60.5429527 56.4998166,60.7572881 C56.5221997,60.8149415 56.5330521,60.8746299 56.5391566,60.936353 C56.6008798,62.9345552 56.6008798,64.9361488 56.5391566,66.9350292 C56.5310173,67.0211704 56.510669,67.1039201 56.4692942,67.1805653 C56.3628048,67.378622 56.1484694,67.5020683 55.92396,67.4946073 C55.8493496,67.4925725 55.7788088,67.474259 55.7096246,67.4478062 C53.7853546,66.5585859 51.886859,65.6130686 50.0182076,64.6132892 L50.0182076,64.6132892 L50.0182076,64.6132892 Z M51.3537337,63.9356912 L55.3460685,65.9318585 L55.3460685,61.9395238 C54.0152902,62.6049129 52.684512,63.270302 51.3537337,63.9356912 L51.3537337,63.9356912 L51.3537337,63.9356912 Z M44.6903467,65.9318585 L48.6826814,63.9356912 L44.6903467,61.9395238 L44.6903467,65.9318585 L44.6903467,65.9318585 L44.6903467,65.9318585 Z M50.2338995,20.0010174 C50.9413418,20.0152612 51.6467492,20.0634188 52.3480869,20.1617689 C53.9779851,20.3896698 55.5719345,20.8624284 57.062786,21.5590182 C58.9436464,22.4373861 60.6542594,23.6704926 62.0867791,25.1728747 C63.4284097,26.5789417 64.5224695,28.2196922 65.3018091,30.0001677 C65.9922945,31.5771603 66.4338524,33.2606422 66.6081694,34.9726118 C66.7933388,36.7971752 66.6800667,38.6522611 66.2669963,40.4395194 C65.929893,41.8971353 65.3940547,43.3079501 64.6798297,44.6224497 C63.6583455,46.5019536 62.2733051,48.1800093 60.623737,49.5419883 C59.3289074,50.6102735 57.8733262,51.4818587 56.3200733,52.1180819 C54.3245843,52.9347267 52.1730917,53.3518667 50.0182076,53.3518667 C47.8626453,53.3518667 45.7118309,52.9347267 43.7163418,52.1180819 C42.1624107,51.4818587 40.7075078,50.6102735 39.4126782,49.5419883 C37.7631101,48.1800093 36.3780697,46.5019536 35.3565855,44.6224497 C34.6416822,43.3079501 34.1065221,41.8971353 33.7694188,40.4395194 C33.3563485,38.6522611 33.2430764,36.7971752 33.4282458,34.9726118 C33.6018845,33.2606422 34.0441207,31.5771603 34.7339278,30.0001677 C35.5139457,28.2196922 36.6073272,26.5789417 37.9489578,25.1728747 C39.3814775,23.6704926 41.0920905,22.4373861 42.9736292,21.5590182 C44.4644807,20.8624284 46.0584301,20.3896698 47.6883282,20.1617689 C48.389666,20.0634188 49.0943952,20.0152612 49.8025157,20.0010174 C50.0182076,19.9996609 50.0175293,19.9996609 50.2338995,20.0010174 L50.2338995,20.0010174 L50.2338995,20.0010174 Z M49.8235423,21.6288807 C49.1846059,21.6410897 48.5477044,21.6851776 47.9141943,21.7740319 C46.4436911,21.9795496 45.0071018,22.4061854 43.6620797,23.0335911 C41.964354,23.8264962 40.4199187,24.940226 39.1271239,26.2961004 C37.9164005,27.5658338 36.9288302,29.0458328 36.2254576,30.6533478 C35.6027998,32.0750151 35.2046516,33.5929977 35.0479698,35.137433 C34.8804355,36.784288 34.9828553,38.4596306 35.355229,40.0732501 C35.6590968,41.3877497 36.1427079,42.6595179 36.7870704,43.845145 C37.708848,45.5421925 38.9595896,47.0567836 40.4490845,48.2864987 C41.6177547,49.2510077 42.9308978,50.03713 44.332895,50.6116301 C46.1330405,51.3482383 48.0735892,51.7240033 50.0182076,51.7240033 C51.9621477,51.7240033 53.9033747,51.3482383 55.7028419,50.6116301 C57.1055174,50.0378083 58.4186605,49.2510077 59.5873307,48.2864987 C61.0768256,47.0567836 62.3268889,45.5421925 63.2493448,43.845145 C63.8937073,42.6595179 64.3766401,41.3877497 64.6805079,40.0732501 C65.0535599,38.4596306 65.1559797,36.784288 64.9884454,35.137433 C64.8310853,33.5929977 64.4336153,32.0750151 63.8109576,30.6533478 C63.107585,29.0458328 62.1200147,27.5658338 60.9092913,26.2961004 C59.6158182,24.940226 58.0720612,23.8264962 56.3743355,23.0335911 C55.0293134,22.4061854 53.5920458,21.9795496 52.1222209,21.7740319 C51.4887108,21.6851776 50.8518092,21.6410897 50.2121946,21.6288807 C50.0175293,21.6275242 50.0182076,21.6275242 49.8235423,21.6288807 L49.8235423,21.6288807 L49.8235423,21.6288807 Z M44.3186512,25.7704362 C44.3939399,25.7812887 44.4136099,25.7806104 44.4861855,25.8029935 C44.6279452,25.8457249 44.7412174,25.9257615 44.845672,26.027503 C44.9406307,26.1407751 45.0294849,26.2594735 45.1224087,26.3741022 C46.2483475,27.7014891 47.6123613,28.810471 49.069299,29.7553099 C49.7787761,30.2158596 50.5214886,30.6289299 51.2811582,30.9999471 C53.2413769,31.9556385 55.3365727,32.6217059 57.4799259,33.0164627 C58.837157,33.2667467 60.2093101,33.4030803 61.5875677,33.4593772 L61.6723522,33.4668383 C61.7462843,33.4817603 61.7659544,33.4831168 61.8371734,33.5095696 C61.9701156,33.5590838 62.0901705,33.6431901 62.1803812,33.7530708 C62.2353216,33.8188637 62.2794096,33.8927958 62.3106103,33.9721541 C62.4510135,34.3248578 62.3214627,34.7392847 62.0053859,34.9502287 C61.8826179,35.0316218 61.750354,35.0682488 61.6058812,35.0845274 C61.4254596,35.0865622 61.4268161,35.0818143 61.2348639,35.0743533 C59.2963501,34.978038 57.3700452,34.7209712 55.4864717,34.2482126 C52.3976011,33.4729427 49.4396378,32.1333469 46.8872838,30.2206075 C46.325671,29.7993979 45.7884762,29.3490223 45.270273,28.8749072 L45.1074867,28.722295 L45.083747,28.6999119 C45.0579725,28.8111492 45.0301631,28.9217083 44.9989625,29.0322673 C44.9216389,29.2886558 44.8314282,29.5402963 44.7208691,29.7851541 C44.3098336,30.6974358 43.6783583,31.4978019 42.9661681,32.1943917 C42.3435105,32.8041622 41.6516686,33.3413571 40.9259128,33.822255 C40.2801937,34.2509257 39.605987,34.6368649 38.9073623,34.9726118 L38.8239343,35.0112736 C38.6889573,35.0648574 38.5553369,35.0960581 38.4088292,35.0831709 C37.9991503,35.0458656 37.6742559,34.695875 37.6681514,34.2841613 C37.6667948,34.1993767 37.6790038,34.1139139 37.7041001,34.0325207 C37.7461532,33.8961872 37.824155,33.7727409 37.9286095,33.6757473 C37.9842282,33.6241983 38.0018634,33.616059 38.0649431,33.5740059 C38.2277294,33.4878648 38.395942,33.4112195 38.5607631,33.3277916 C38.9690855,33.1134562 39.3699468,32.8862337 39.7592775,32.6386628 C40.0882415,32.4297537 40.4104228,32.2093138 40.7217516,31.9746302 C40.9618615,31.7935304 41.1965451,31.6042913 41.4230894,31.4055563 C41.6075806,31.2434483 41.7866455,31.075914 41.9582495,30.9009187 C42.8183039,30.0259422 43.5745821,28.9020382 43.5725472,27.6295918 C43.571869,27.3399677 43.5284593,27.0564482 43.4599534,26.7763201 L43.4436747,26.6922138 C43.4362137,26.6047162 43.4335006,26.5226447 43.4491009,26.4358253 C43.495902,26.1801151 43.6668276,25.9576405 43.9015113,25.8464032 C43.9808696,25.8084197 44.0609062,25.7901062 44.1470473,25.7745059 C44.2331884,25.7677231 44.2325102,25.7677231 44.3186512,25.7704362 L44.3186512,25.7704362 L44.3186512,25.7704362 Z"></path>
        </g>
    </g>
</svg>