<?xml version="1.0" encoding="UTF-8"?>
<svg width="100px" height="100px" viewBox="0 0 100 100" version="1.1" xmlns="http://www.w3.org/2000/svg" xmlns:xlink="http://www.w3.org/1999/xlink">
    <!-- Generator: Sketch 41.1 (35376) - http://www.bohemiancoding.com/sketch -->
    <title>category_painting-black</title>
    <desc>Created with Sketch.</desc>
    <defs></defs>
    <g stroke="none" stroke-width="1" fill="none" fill-rule="evenodd">
        <g fill="#2B2C3D">
            <path d="M76.8956769,41.8962935 L57.9744481,59.8480124 L58.8554007,61.3750482 L61.359647,59.928099 C61.8447869,59.6470259 62.4631479,59.8133596 62.7426809,60.2984995 L71.0046916,74.6209095 C72.3592331,76.969603 71.5514366,79.9851714 69.2042832,81.3420232 C66.8571299,82.6981049 63.8446417,81.8903083 62.48933,79.5416149 L54.2280894,65.219975 C53.9477863,64.734835 54.1148901,64.115704 54.59849,63.836171 L57.1027363,62.3884517 L55.8221208,60.1691289 C55.5887915,59.7633055 55.6627176,59.2496731 56.0023156,58.9270166 L74.9235444,40.9752976 L69.0086871,30.7219029 L67.0973897,31.8261739 L66.9325961,31.8823885 L71.3627711,39.5606911 C71.6423041,40.045061 71.4775105,40.6649621 70.9923705,40.9444951 L33.3555199,62.6933968 C32.87192,62.9729299 32.252019,62.8073662 31.973256,62.3229963 L22.1356956,45.2684013 C21.8561625,44.7840314 22.0224962,44.1641303 22.5060961,43.8845973 L60.1421767,22.1356956 C60.6273166,21.8561625 61.2456776,22.0224962 61.5244405,22.5060961 L65.9546155,30.1874789 L66.0855263,30.0719694 L68.873156,28.4609967 C69.3567558,28.1814636 69.9766569,28.3477973 70.2554198,28.8313972 L77.0758717,40.652641 C77.3092009,41.0592345 77.2345048,41.5736369 76.8956769,41.8962935 L76.8956769,41.8962935 Z M56.4874556,65.0829037 L64.2427645,78.5274413 C65.0390101,79.9089351 66.8116961,80.3832942 68.1916498,79.5862785 C69.5723736,78.7877227 70.0482728,77.0150367 69.250487,75.6327728 L61.4951781,62.1890053 L56.4874556,65.0829037 L56.4874556,65.0829037 Z M60.2777078,24.3966018 L24.3950617,45.1328701 L33.2199887,60.4324906 L69.104175,39.6962223 L60.2777078,24.3966018 L60.2777078,24.3966018 Z M66.2172071,76.1625765 C66.6392019,75.9184664 67.1782463,76.0632383 67.4223564,76.4860031 C67.6664665,76.9079979 67.5216946,77.4493525 67.0996998,77.6919225 C66.6777051,77.9360326 66.1378906,77.7912607 65.8937805,77.3692659 C65.6504405,76.9465011 65.7952124,76.4066866 66.2172071,76.1625765 L66.2172071,76.1625765 Z"></path>
        </g>
    </g>
</svg>